<svg xmlns="http://www.w3.org/2000/svg" width="313" height="281" fill="none" xmlns:v="https://vecta.io/nano"><path d="M312.286 281.972H.128l3.937-23.393c.713-3.564 2.851-12.069 7.29-16.945 4.439-4.892 13.284-7.225 13.284-7.225l5.346-9.931s2.268-6.577 3.337-9.039 3.208-2.414 3.208-2.414 9.056-11.956 11.842-17.026c2.803-5.071 10.141-10.142 11.048-10.628.437-.226 1.62-1.328 2.786-2.494 1.264-1.264 2.495-2.576 2.722-2.933.454-.68 1.345-.68 2.252-.68.437 0 .454-.81.275-1.895-.178-1.167-.583-2.625-.94-3.759-.68-2.203.794-7.014.761-7.533-.032-.534.194-1.263.94-.745.729.535 4.828 2.689 6.48 3.58 1.669.907 3.402 4.65 4.714 6.205.356.437.859.68 1.377.794 1.345.307 2.948-.243 3.434-.519.68-.372 8.132-3.969 9.266-4.115.437-.048 1.296-.016 2.268 0 1.62.049 3.596.098 4.471-.259 1.425-.583 6.01-4.131 6.982-4.925.972-.777 5.233-3.045 6.982-3.402 1.75-.372 5.881-3.531 7.371-4.649 1.474-1.118 5.638-3.224 5.638-3.224l54.497-1.215 7.387 3.354c1.506.777 2.203 1.377 4.131 3.304 1.944 1.928 6.998 3.014 9.234 3.888 2.252.891 6.739 5.217 7.938 6.092a.4.4 0 0 1 .113.081c1.248.777 3.564.712 4.714.664 1.199-.049 4.083.113 5.541.794.939.453 3.791 1.927 6.285 2.997 1.329.583 2.544 1.053 3.338 1.198 2.268.422 4.179-2.802 4.924-4.179.746-1.361 1.669-2.414 2.852-2.673s6.561-4.39 6.561-4.39 1.134 2.77 1.328 6.107-.68 5.767-1.053 6.95c-.146.47-.065.664.13.729.275.097.81-.065 1.166.048.616.179 1.231 1.183 2.009 2.382.243.372 1.199 1.28 2.511 2.462 2.851 2.56 7.387 6.351 9.914 8.505 3.661 3.143 13.074 18.355 14.062 19.861s1.944 1.053 3.321 2.69c1.393 1.652 3.969 9.072 3.969 9.072l4.73 9.703c.551.81 7.193 3.775 10.546 5.622 3.338 1.847 7.242 6.464 9.218 12.263 1.993 5.8 5.719 30.845 5.719 30.845z" fill="#28375b"/><path d="M66.354 232.918c.502 7.258 1.037 36.677 1.247 49.054h-6.48l-1.004-39.155s-38.135-7.209-46.721 7.549c.146-.373 4.714-12.102 21.222-14.175 16.767-2.106 27.475-.243 27.475-.243l.583-11.356s-8.797-2.787-16.362-2.965-12.668 1.912-12.668 1.912.972-4.666 5.994-5.751c5.006-1.086 23.36 3.126 23.36 3.126s.162-27.475-.794-38.037c1.264-1.264 2.495-2.576 2.722-2.933.454-.68 1.345-.68 2.252-.68.437 0 .454-.81.275-1.895.259.583.437 1.344.632 2.397.567 3.256-2.365 43.87-1.733 53.152zm29.403-61.641l-7.371 110.695H74.081l6.707-106.061c1.345.307 2.948-.243 3.434-.519.68-.372 8.132-3.969 9.266-4.115.437-.048 1.296-.016 2.268 0zm131.284 3.5v107.195h-12.036l-4.504-111.65c1.248.777 3.564.712 4.714.664 1.199-.049 4.083.113 5.541.794l6.285 2.997zm74.456 85.681s-1.07-4.568-9.737-9.379c-8.683-4.812-36.466-9.38-36.466-9.38l-1.247 40.273h-9.558l1.328-45.927c.421-6.61-1.263-52.261-1.166-55.663.016-.6.178-1.215.47-1.863.275.097.81-.065 1.166.048.616.179 1.231 1.183 2.009 2.382.243.372 1.199 1.28 2.511 2.462-1.086 11.907 3.143 37.681 3.143 37.681s14.239-2.899 17.415-2.705c3.159.211 7.29 5.962 7.29 5.962-3.435-1.588-23.652 1.765-23.652 1.765l3.094 11.373s31.428 1.749 38.702 6.561 4.698 16.41 4.698 16.41z" fill="#1a2742"/><path d="M304.364 281.972c1.879-30.764-5.783-37.471-19.067-41.456-13.851-4.147-39.253-2.009-39.253-2.009v-2.899s11.988-1.28 18.808-2.285c6.804-1.02 17.593-.356 17.593-.356s-5.572-13.43-9.234-14.58c-3.661-1.134-27.037 4.115-27.037 4.115l-.13-3.516s7.598-2.721 10.757-3.159 16.41-2.705 16.41-2.705-9.363-6.836-11.696-10.579c-2.349-3.758-17.026-16.977-17.026-16.977l1.328 50.479v2.786c-.032 12.555-.713 34.685-.988 43.141h-5.038c.324-14.531 1.247-64.865-1.15-76.27-2.819-13.365 1.053-30.261 1.053-30.261s-1.232 2.122-5.8 3.499-7.614-.308-18.031-2.171c-9.752-1.749-19.78-10.125-20.93-11.388.745.891 4.795 5.848 4.925 10.432.146 5.039 1.733 14.062 1.02 25.094-.599 9.202 6.513 63.439 8.878 81.065H100.552c3.11-22.032 11.145-80.109 11.34-93.62.227-15.989 3.159-21.335 3.369-21.594-.356.307-6.48 6.609-11.08 7.111-4.747.535-4.407 3.078-15.131 5.719s-14.159-2.219-14.159-2.219l-2.365 41.018c-.859 12.474-.211 54.124-.032 63.585h-3.791l-2.203-54.108c-.356-12.101 1.652-46.786 1.652-46.786s-2.527 4.164-7.209 8.441c-4.698 4.293-16.654 24.073-16.654 24.073l21.676 4.795.389 3.321s-22.534-4.925-27.54-3.71-7.711 14.92-7.711 14.92 5.281-1.182 11.437-.55 16.232 3.191 16.232 3.191-29.322-1.507-40.208 7.695c-9.072 7.663-11.664 31.072-12.28 38.718H.128l3.937-23.393c.713-3.564 2.851-12.069 7.29-16.945 4.439-4.892 13.284-7.225 13.284-7.225l5.346-9.931s2.268-6.577 3.337-9.039 3.208-2.414 3.208-2.414 9.056-11.956 11.842-17.026c2.803-5.071 10.141-10.142 11.048-10.628.437-.226 1.62-1.328 2.786-2.494 1.264-1.264 2.495-2.576 2.722-2.933.454-.68 1.345-.68 2.252-.68.437 0 .454-.81.275-1.895-.178-1.167-.583-2.625-.94-3.759-.68-2.203.794-7.014.761-7.533-.032-.534.194-1.263.94-.745.729.535 4.828 2.689 6.48 3.58 1.669.907 3.402 4.65 4.714 6.205.356.437.859.68 1.377.794 1.345.307 2.948-.243 3.434-.519.68-.372 8.132-3.969 9.266-4.115.437-.048 1.296-.016 2.268 0 1.62.049 3.596.098 4.471-.259 1.425-.583 6.01-4.131 6.982-4.925.972-.777 5.233-3.045 6.982-3.402 1.75-.372 5.881-3.531 7.371-4.649 1.474-1.118 5.638-3.224 5.638-3.224l54.497-1.215 7.387 3.354c1.506.777 2.203 1.377 4.131 3.304 1.944 1.928 6.998 3.014 9.234 3.888 2.252.891 6.739 5.217 7.938 6.092a.4.4 0 0 1 .113.081c1.248.777 3.564.712 4.714.664 1.199-.049 4.083.113 5.541.794.939.453 3.791 1.927 6.285 2.997 1.329.583 2.544 1.053 3.338 1.198 2.268.422 4.179-2.802 4.924-4.179.746-1.361 1.669-2.414 2.852-2.673s6.561-4.39 6.561-4.39 1.134 2.77 1.328 6.107-.68 5.767-1.053 6.95c-.146.47-.065.664.13.729.275.097.81-.065 1.166.048.616.179 1.231 1.183 2.009 2.382.243.372 1.199 1.28 2.511 2.462 2.851 2.56 7.387 6.351 9.914 8.505 3.661 3.143 13.074 18.355 14.062 19.861s1.944 1.053 3.321 2.69c1.393 1.652 3.969 9.072 3.969 9.072l4.73 9.703c.551.81 7.193 3.775 10.546 5.622 3.338 1.847 7.242 6.464 9.218 12.263 1.993 5.8 5.719 30.845 5.719 30.845h-7.922z" fill="#496084"/><path d="M203.487 281.972h-94.625l2.722-23.555 4.892-44.274s2.447-21.514 2.155-23.863c-.292-2.333-.502-10.87-.13-14.839.357-3.969 2.382-8.295 4.374-10.32 1.993-2.041 4.65-1.555 6.464-.194s56.733-2.43 58.936-.891c2.219 1.523 5.006 5.621 5.735 12.182.712 6.561-.6 11.502-.114 17.253.438 4.958 7.614 70.47 9.591 88.501z" fill="#fff"/><path d="M203.487 281.972h-11.033l-5.491-66.42s-8.117 9.331-17.966 9.331c-9.639 0-20.121-3.71-20.574-3.872.308.049 4.698.665 12.83-.356 8.44-1.053 26.552-8.084 25.677-16.524-.875-8.456-.826-35.186-.826-35.186s-56.279-2.754-61.609 3.126c-5.346 5.881 1.313 29.857 1.313 29.857s9.055.437 18.208 6.95c8.927 6.35 20.558.453 21.093.178-.519.34-10.514 6.771-22.372 4.066-12.199-2.786-18.42-6.529-18.42-6.529l-1.182 21.984-.924 24.624s7.209 3.872 17.577 11.259c10.109 7.193 38.751 3.029 40.225 2.819-1.215.259-20.412 4.374-33.178 4.212-13.203-.179-26.746-5.46-26.746-5.46l-1.134 15.941h-10.093l2.722-23.555 4.892-44.274s2.447-21.514 2.155-23.863c-.292-2.333-.502-10.87-.13-14.839.357-3.969 2.382-8.295 4.374-10.32 1.993-2.041 4.65-1.555 6.464-.194s56.733-2.43 58.936-.891c2.219 1.523 5.006 5.621 5.735 12.182.712 6.561-.6 11.502-.114 17.253.438 4.958 7.614 70.47 9.591 88.501z" fill="#b2b2b2"/><path d="M206.629 98.685c-.68 1.96-3.904 9.186-4.876 10.887-.972 1.684-2.511 2.559-4.017 3.612-1.491 1.069-2.252 2.949-2.252 2.949l-11.097 28.674-.016.599-.26 15.584s3.062 2.771 3.678 4.115c.324.713.583 1.782.567 3.062-.016 1.15-.259 2.446-.875 3.791-.308.713-.664 1.344-1.085 1.96-1.232 1.847-3.014 3.564-6.043 6.901-4.05 4.488-10.789 9.931-14.904 12.053-4.131 2.106-12.328 5.929-19.359 4.633-7.047-1.296-12.101-3.936-16.022-9.59-3.029-4.358-5.378-8.295-6.399-12.474a19.45 19.45 0 0 1-.534-3.775c-.033-1.02.097-2.025.356-2.997 1.118-4.309 4.536-7.679 4.536-7.679l-1.183-17.998-.129-2.057-5.346-24.559s-1.507.048-3.742-.924c-2.22-.956-3.726-3.402-5.152-6.042s-2.576-11.778-3.159-15.763c-.567-3.985-1.231-8.473 1.004-9.801 2.22-1.345 7.112 2.284 7.112 2.284l-1.085-21.254c-.357-8.197 5.216-24.592 13.122-32.594 7.938-8.003 35.413-11.129 41.051-11.729 5.621-.583 21.805 15.892 25.32 21.821 3.516 5.913 4.941 17.123 5.249 22.502.308 5.362-1.523 15.487-1.085 16.605.437 1.102 2.899-2.3 5.864-2.057s2.543 3.953 2.722 8.084-1.28 9.202-1.961 11.178z" fill="#eebba1"/><path d="M168.316 99.43s1.134 13.625 2.673 14.37c1.523.761 6.448 7.306 10.433 6.626 3.985-.665 7.452-4.245 8.554-10.466 1.182-6.787-.033-8.991-2.608-9.509-2.592-.535-14.613 2.511-19.052-1.021zm-19.132 1.021s-8.165 2.365-13.786 1.539c-5.621-.81-7.452-2.349-8.505-.113s3.402 16.394 8.327 18.549c4.925 2.17 9.882-4.31 11.696-4.909 4.666-1.555 2.268-15.066 2.268-15.066zm10.935-10.481s-3.434-.518-3.564 3.434c-.129 3.937.259 18.857-.324 20.477s-1.652 5.281-.972 7.938c.697 2.673 4.39 4.05 7.258 2.3 2.883-1.749 2.495-4.309 2.073-5.832-.55-2.041-1.198-3.175-1.409-4.649s-.826-19.456-1.539-22.097c-.34-1.28-1.523-1.571-1.523-1.571zm-30.18-7.614l6.804-52.439 44.258-.859 7.954 53.298h-59.016z" fill="#f9c9b9"/><g fill="#c98d73"><path d="M191.499 37.854s3.256 6.302 2.818 19.148c-.437 12.83-6.949 25.094-6.949 25.094l-5.719.956s5.249 1.004 6.464 2.705c2.316 3.208 2.025 5.233 2.025 5.233s-1.815-1.409-4.65-1.685c-2.851-.275-7.776-.535-8.667-.437-.907.113-5.184 3.013-5.184 3.013s-1.96-6.124 4.747-11.988c0 0-9.979-1.264-12.199 4.406-2.3 5.881 1.118 12.83 1.118 12.83s1.134 1.021 2.414 1.328 2.624 1.361 2.624 1.361l-.388-2.025s2.397 2.56 9.898 2.317c7.484-.227 8.1-4.731 8.1-4.731s-.664 1.976-4.617 1.669c-3.969-.308-12.134.356-12.798-.34-.664-.713 1.247-2.657 2.77-3.661 1.507-1.004 4.909-3.434 8.473-3.515 3.547-.081 7.759-.016 10.141 5.524 1.199 2.786 1.442 14.289-1.993 22.713-3.386 8.262-8.991 14.985-8.683 17.949.616 5.978 2.462 1.782 5.33-1.603 2.883-3.386 8.1-13.544 9.153-17.82s2.397-13.576 2.397-15.909c0-2.349 1.28-14.256 1.28-14.256l1.474-15.325s-.048-12.847-1.992-18.711c-1.928-5.848-4.974-12.766-7.387-14.24zm-64.962.826s-3.257 6.302-2.819 19.132c.437 12.847 6.966 25.11 6.966 25.11l5.702.956s-3.904.259-5.961 2.867c-1.28 1.652-2.528 5.071-2.528 5.071s3.224-2.673 6.059-2.948c2.851-.292 6.172-.713 7.063-.648 3.5.243 7.177 3.499 7.177 3.499s.13-5.848-6.529-11c0 0 9.963-1.264 12.183 4.406 2.316 5.881-1.442 12.053-1.442 12.053s-1.15 1.021-2.43 1.328c-1.264.308-2.624 1.377-2.624 1.377l.388-2.025s-2.397 2.543-9.898 2.317c-7.484-.243-8.1-4.731-8.1-4.731s.664 1.976 4.633 1.669c3.953-.308 12.134.34 12.798-.356.648-.713-.923-1.879-2.43-2.884-1.522-1.004-3.191-3.904-6.706-4.39-6.254-.891-11.794 3.127-13.365 8.926-1.329 4.876 1.441 11.113 4.876 19.537 3.386 8.262 9.331 13.592 9.039 16.556-.615 5.978-4.26 3.824-7.128.438-2.883-3.402-8.1-13.543-9.153-17.82s-3.758-12.312-3.758-14.661l.081-15.504-1.458-15.325s.032-12.847 1.976-18.711c1.928-5.864 4.974-12.782 7.388-14.24zm21.189 80.271s.211 2.754 1.815 3.581c1.603.842 3.709.502 4.86 1.425l-.794-1.571s2.9 3.078 6.415 3.467c4.196.469 5.767-3.338 5.767-3.338l-.826 2.171s.972-1.037 2.673-1.474c1.717-.437 2.835-.826 3.208-2.187s.129-2.754.129-2.754l-1.02-3.807s4.114 2.106 5.184 4.487 2.737 3.824 2.737 3.824l-6.091-4.698s.972 4.989-1.166 6.042c-2.122 1.053-4.293 1.312-5.136 2.106-.826.794-3.337 2.43-4.6 2.43-1.248 0-2.754-.356-3.467-1.118-.729-.777-2.446-2.268-3.548-2.624-1.102-.34-2.722-.567-3.337-.68-.616-.098-2.09-.373-2.641-1.296-.567-.924-.68-2.511-.162-3.986z"/><path d="M148.682 115.566s-2.495-.503-3.515 1.522c-1.037 2.025-2.916 4.877-2.916 4.877l5.151-4.31s-.389 2.754 0 3.807c.373 1.053 1.005 1.345 1.005 1.345s-1.28-3.046.275-7.241z"/></g><path d="M129.631 37.368s-8.797 12.766-9.817 25.256c-1.037 12.49 1.02 39.722 2.219 42.914 4.018 10.659 8.505 24.203 11.842 27.362s-5.508-3.143-10.497-12.329c-4.99-9.169-4.974-15.211-5.152-17.674s.664-6.156.097-11.599-2.333-20.736-1.458-28.415c.891-7.679 3.807-22.178 12.766-25.515zm64.314 3.337s5.184 13.624 4.131 33.097c-1.053 19.456-1.96 29.84-4.52 38.281-1.701 5.621-8.359 21.772-8.359 21.772s6.966-9.979 8.602-14.369c1.62-4.406 2.187-5.945 3.548-11.972 1.377-6.01 1.15-17.739 1.798-20.331.648-2.608 1.442-16.443 1.507-20.363.064-3.937.469-17.998-6.707-26.114z" fill="#9b553d"/><path d="M147.499 90.99s-2.575-4.682-5.038-5.443-5.394.535-7.144.648c-1.766.113-5.573 0-6.658 5.573 0 0 .615-1.442 2.981-2.252 2.349-.794 7.209-1.571 9.331-1.345 2.122.243 5.103 1.409 6.528 2.819zm23.685 1.215s1.344-4.455 3.191-5.557c1.847-1.085 6.529.065 9.477.162 2.949.081 7.744 1.49 6.253 4.666 0 0-1.166-1.523-2.494-1.863-1.345-.356-9.429-.81-10.79-.745-1.36.081-5.637 3.337-5.637 3.337zm-19.716-7.565s1.977-3.321-1.069-5.962c-3.062-2.641-15.86-1.782-19.002-.599-3.143 1.166-5.201 6.221-5.201 6.221s8.36-3.094 13.43-2.851c5.071.227 8.505.94 9.558 1.62 1.053.697 1.863.373 1.863.373l.421 1.199zm17.496-.34s-1.344-3.208.843-5.881c2.203-2.657 8.343-1.944 12.02-1.474 7.485.94 11.032 5.832 10.741 6.707-.486 1.393-22.923-4.487-23.604.648zm-4.746 36.126s-1.815.243-2.43 1.587-1.41 2.673-3.37 2.43c0 0 5.33 1.912 5.8-4.017z" fill="#ffd7c5"/><path d="M145.734 82.356s1.263 2.187 3.223 3.532c3.143 2.155 5.427 5.719 3.143 8.829 0 0 1.847-1.879 1.879-5.087.017-3.564-.437-7.339-8.245-7.274zm25.855-1.961s-3.921.567-5.946 2.673c-2.008 2.106-1.976 7.776 0 11.065 0 0-1.053-2.349-.307-4.471.761-2.106 5.119-7.598 6.593-7.889 1.458-.292-.34-1.377-.34-1.377z" fill="#9b553d"/><path d="M187.481 171.958c-.308.713-.664 1.344-1.085 1.96-.26-5.573-2.835-10.627-2.835-10.627l.469-8.894c-3.272 10.433-20.671 23.279-36.369 16.718-15.73-6.561-19.634-20.93-19.634-20.93l1.588 13.349s-.422 4.244-4.245 8.715a8.21 8.21 0 0 0-1.701 3.192 19.45 19.45 0 0 1-.534-3.775c-.211-5.654 4.892-10.676 4.892-10.676l-1.183-17.998c2.106.94 4.131 2.495 5.557 4.471 3.758 5.184 19.116 12.037 25.807 13.9 6.69 1.847 23.036-12.992 25.32-15.455.178-.194.47-.356.843-.502l-.26 15.584s3.062 2.771 3.678 4.115.988 4.018-.308 6.853z" fill="#c98d73"/><path d="M188.356 168.167c-.016 1.15-.259 2.446-.875 3.791-.308.713-.664 1.344-1.085 1.96-1.232 1.847-3.014 3.564-6.043 6.901-4.05 4.488-10.789 9.931-14.904 12.053-4.131 2.106-12.328 5.929-19.359 4.633-7.047-1.296-12.101-3.936-16.022-9.59-3.029-4.358-5.378-8.295-6.399-12.474a19.45 19.45 0 0 1-.534-3.775c-.033-1.02.097-2.025.356-2.997 1.053 4.536 4.892 15.973 17.626 21.822 14.223 6.528 38.75-12.361 47.239-22.324z" fill="#ffd7c5"/><path d="M109.494 87.993s.34 9.817.891 11c.551 1.199 2.252-7.452 2.252-7.452s1.944 3.726 1.588 5.2-1.199 3.597-.908 4.552c.276.956 3.986 3.759 3.986 3.759s1.215-5.946.939-6.723c-.259-.778-.696-.972-1.069-1.571-.389-.599-2.138-4.212-2.592-5.006s-1.15-1.717-2.009-2.268c-.858-.535-2.576-2.462-2.819-2.365-.243.113-.259.875-.259.875zm88.452 17.35l1.005-1.717c.388-.632.729-1.263 1.279-1.49.535-.227 1.62-.421 2.171-1.41.551-.972 1.248-3.564 1.167-4.924l-.729-7.339c.064-1.166 1.765-2.624 1.911-3.062s-.259 1.555.243 5.103 0 10.822 0 10.822 2.284-3.499 2.495-4.812c.194-1.328 1.166-13.446.794-13.819s-2.155.794-2.868 1.215c-.696.421-2.867 2.527-3.078 2.673-.21.13-.891 1.102-1.085 1.539-.211.437-.697 2.819-.972 3.11-.259.292-1.231 1.021-1.231 1.021l-1.102 13.089z" fill="#c98d73"/><path d="M112.135 93.291s1.328 2.867.956 4.034c-.389 1.166-1.102 4.196.064 6.221s2.22 4.018 1.993 4.342c-.243.324-1.296-.648-2.252-1.474-.956-.81-2.495-2.349-2.495-3.694s1.734-9.428 1.734-9.428zm90.266 11.599s-2.252.939-1.976-.616c.291-1.555 2.624-1.409 3.143-3.969.534-2.543-.13-9.331-.195-10.319-.048-.972 1.231-2.705 1.231-2.705s1.475 10.433.227 13.511c-1.263 3.078-2.43 4.099-2.43 4.099z" fill="#ffd7c5"/><path d="M117.4 105.052s-3.629-2.463-3.969-3.532.356-3.499.713-3.953c.372-.454 1.62-2.219 2.608-1.393 1.004.826 1.814 2.349 1.539 3.321-.292.988-.891 5.557-.891 5.557zm80.676.032s1.02-2.219 1.668-2.543 2.22-.632 2.738-1.766c.502-1.118 1.199-3.758.826-5.216s-2.899-4.552-2.899-4.552l-1.183 1.231-1.15 12.846z" fill="#9b553d"/><path d="M147.937 113.362s-1.96-.469-3.516 1.296-1.101 4.067-1.782 4.812c0 0 2.171-2.803 3.24-3.516 1.07-.696 2.657-.648 2.657-.648s.632-1.247-.599-1.944zm21.854.632s4.86 2.835 5.977 4.893l-1.36-3.791c-.519-1.636-3.921-2.495-4.617-1.102zm-27.071 20.428s2.252.989 5.233 1.005c2.997.016 10.498.048 11.794 1.134 0 0 3.24-1.474 6.269-1.685 3.029-.194 5.233-.34 6.804-.761 1.571-.438 3.272.178 2.705.712-.583.519-2.349.146-3.369.665-1.005.502-2.544 1.49-3.273 1.701-.729.226.405 5.103-8.035 6.301-8.44 1.215-10.335-1.863-11.583-3.223-1.263-1.345-6.545-4.099-6.545-5.849z" fill="#ffd7c5"/><path d="M186.428 94.263c-.162.113-.486.259-.875.421l-3.159 1.118-5.475-.292-1.426-.211-1.458.065c-.049 0-.13 0-.194.016l-1.264.259-.583.13c-.972.211-1.798.356-1.912-.032-.129-.389 1.183-1.409 1.555-1.588 0 0 .017 0 .033-.016l4.957-2.965c6.593-2.252 10.449.583 10.676 1.247.227.648-.211 1.377-.875 1.847zm-37.859 1.004c0 .356-.843.097-1.426-.162-.194-.081-.437-.13-.713-.162-.486-.065-1.053-.081-1.555-.097h-.178c-.81-.032-3.321.405-3.321.405l-5.152.356-3.288-.68-.276-.081c-.437-.162-1.004-.259-1.215-.891-.194-.648.162-1.28.162-1.28s2.252-1.361 3.597-1.669c1.328-.292 4.892-.421 6.885 0 1.992.437 3.807 1.944 3.969 2.074.097.081.437.324.858.599l.875.518c.745.389.778.729.778 1.069z" fill="#fff"/><path d="M148.569 95.267c0 .356-.843.097-1.426-.162-.551-.211-1.49-.227-2.268-.259.567-.599.292-1.296-.292-1.669-.761-.502-2.997-2.754-8.245-1.798-3.402.632-3.662 2.381-3.402 3.548l-.276-.081c-.437-.162-1.004-.259-1.215-.891-.194-.648.162-1.28.162-1.28s2.252-1.361 3.597-1.669c1.328-.292 4.892-.421 6.885 0 1.992.437 3.807 1.944 3.969 2.074.162.146.988.713 1.733 1.118.745.389.778.729.778 1.069zm37.859-1.004c-.162.113-.486.259-.875.421.357-.454.664-1.021.502-1.523-.34-1.053-2.089-2.349-5.896-1.96-3.807.405-5.249 1.604-6.108 2.738-.389.502-.356 1.021-.21 1.442l-1.847.389c-.972.211-1.798.356-1.912-.032-.129-.389 1.183-1.409 1.555-1.588.357-.178 4.99-2.981 4.99-2.981 6.593-2.252 10.449.583 10.676 1.247.227.648-.211 1.377-.875 1.847z" fill="#b2b2b2"/><path d="M148.569 95.267c0 .356-.843.097-1.426-.162-.194-.081-.437-.13-.713-.162l.373-1.264h.113l.875.518c.745.389.778.729.778 1.069zm24.008.373l-.583.13c-.972.211-1.798.356-1.912-.032-.129-.389 1.183-1.409 1.555-1.588 0 0 .017 0 .033-.016h.162l.745 1.507z" fill="#d34f4f"/><path d="M146.787 93.939s-.162.373 0 .47c.178.113 1.069.47 1.15.551.081.097-.146.324.016.421s.745.243.616-.146c-.13-.405-1.215-1.231-1.782-1.296zm24.251 1.96s-.243-.211-.227-.421c.016-.194 1.264-.599 1.199-.859-.081-.243.162-.437-.729-.194-.875.259-1.539 1.021-1.247 1.328.275.308 1.004.146 1.004.146z" fill="#ff8d8d"/><path d="M171.022 135.848s-.097.68-.778 1.944-2.543 3.872-6.431 4.617c-3.904.745-8.133.826-11.162-.081s-4.536-2.138-6.529-4.099c-1.522-1.522-.307-1.296.324-1.117.033.01.065.021.098.032.016 0 .048.016.064.016a2.35 2.35 0 0 0 .162.049h.081c.324-.049 1.669-.211 2.495-.243.956-.033 7.08-.551 10.53.324 0 0 4.147-.988 6.577-1.199 1.523-.146 2.933-.194 3.775-.227.502 0 .794-.016.794-.016z" fill="#bf5c5c"/><path d="M146.446 137.112l.098.032-.065-.016c-.016 0-.016 0-.033-.016z" fill="#a52828"/><path d="M170.228 135.864c-.016.081-.016.13-.016.13l-7.128 2.608c-1.329.616-2.22.826-4.293.648-1.847-.162-10.093-1.701-11.94-2.041.324-.049 1.669-.211 2.495-.243.956-.033 7.08-.551 10.53.324 0 0 4.147-.988 6.577-1.199 1.523-.146 2.933-.194 3.775-.227z" fill="#993c3c"/><path d="M168.689 138.051s-.875-.794-2.268-.129c-1.393.648-3.953 1.846-8.003 2.008-4.05.146-7.614-1.393-7.614-1.393s1.653 2.414 5.103 2.949 8.716.016 12.782-3.435z" fill="#d37272"/><g fill="#000"><path d="M151.08 85.401s1.879-1.474 1.701-3.208c0 0-.195 1.134-1.62 2.381 0 0 1.101-.729.502-1.993-.583-1.264-.972-2.576-.972-2.576l.502 2.673-1.571-2.641 1.166 3.321s-.94-2.43-2.268-2.819c-1.312-.389-1.571-.68-1.571-.68l2.349 2.738-4.374-3.289 2.057 2.462s-1.782-2.365-4.52-2.219l-3.094.032 2.851.437s-8.472-.551-10.481.308c-2.025.859-4.779 3.11-4.779 3.11s2.235-2.333 4.989-3.645c0 0-5.929 1.328-7.84 7.047 0 0 .243-1.069 2.867-1.636 2.608-.567 2.851-1.069 2.851-1.069l-1.814 1.539s3.045-1.377 5.427-1.733c2.381-.34 4.633.113 4.633.113l-1.944-.923 6.367 1.523-4.212-1.733 5.767 1.733-2.446-1.831s2.543 1.345 4.924 1.231 3.321.583 3.321.583l-1.62-1.636 2.447 1.863.097-1.004.308 1.539zm17.917-.583s-1.183-.923-.875-1.879.373-1.636.373-1.636l.226 2.025s-.469-1.652.859-2.576c1.345-.923 1.539-1.426 1.539-1.426l-.907 2.333s.956-1.96 2.867-2.527c1.912-.551 3.175-1.247 3.175-1.247l-2.932 2.171c.081-.081 4.261-1.831 4.261-1.831l-2.301 1.588s2.155-.826 7.388-.405c5.216.437 8.132 2.56 8.132 2.56l-3.515-2.041s6.075 1.037 6.658 6.399c0 0-.324-1.118-2.673-1.75-2.365-.616-2.916-.923-2.916-.923l3.321 1.798-4.666-1.345 2.819 1.377s-4.147-1.393-11-1.361c-6.869.016-7.403.81-7.403.81l1.539-1.96-2.592 2.414s.259-.437.129-1.458.114-1.539.114-1.539l-.778 2.543-.129-1.636-.276 1.766-.437-.243zm-39.447 9.704s1.49-2.803 5.978-4.001c4.471-1.199 7.533-.016 9.817 1.669 2.284 1.669 3.402 2.284 3.596 3.094.195.794-.761.308-1.798-.032-1.021-.34-3.532-.34-3.532-.34s1.604-.275 2.544-.162 2.025.697 2.219.599c.211-.097.016-.421-.534-.729l-1.021-.567-.211.94-.388-.049.356-1.021s-1.928-1.944-4.358-2.56c0 0 .535 2.576-.842 3.888 0 0-2.301 1.409-5.152.356 0 0-1.474-1.312-.777-4.228 0 0-3.273 1.183-3.71 2.074-.454.875.972 1.442 2.316 1.669 0 0-2.43-.081-2.835-1.28 0 0-1.101 1.555-1.668.68zm59.405-1.086s-2.981-3.694-7.614-3.434-5.994 1.49-8.327 2.932-3.304 2.381-3.337 2.819c-.032.454 1.296.47 2.949.049 1.668-.405 2.867-.502 2.867-.502s-1.28-.065-1.944.081c-.664.162-3.256.551-3.289.292-.032-.275 1.313-1.183 1.475-1.199.162-.032.68 1.296.68 1.296l.373-.13s-.551-1.247-.535-1.393 2.56-1.928 4.147-2.673c0 0-.858 1.669.519 3.937 0 0 1.96.859 5.475.292 0 0 2.333-1.652.681-5.006 0 0 3.045 1.021 3.79 1.62.729.599-.064 1.717-1.668 2.365 0 0 1.798-.211 2.462-1.685l1.296.34zm-23.636-59.275c-.016.032-.129.211-.388.421l.388-.421z"/><path d="M165.109 34.792l-.373-.405 2.041-2.203-1.215 2.106c-.016.032-.129.227-.453.502z"/><path d="M204.766 27.438c-1.652-6.399-5.621-8.797-5.896-8.959l3.094 1.442c-.308-.211-2.9-1.944-5.719-6.367-2.997-4.73-10.19-6.075-10.19-6.075l4.115-.049s-4.293-.535-9.833-2.349-8.376-3.499-8.376-3.499l.616 1.847c-.13-.259-1.361-2.398-5.897-2.576s-8.796 1.539-9.282 1.75l2.867-1.62c-.113.016-.616.113-2.884.34-2.689.259-5.167 1.798-5.329 1.895l1.474-1.879s-.713.632-4.277 2.041c-3.37 1.312-6.966 4.082-7.387 4.406l3.175-2.819c-.389.308-2.106 1.604-3.775 2.268-1.911.729-5.67 3.467-5.67 3.467l2.042-3.127-4.715 5.119 2.819-4.115c-.162.194-.777.794-2.721 1.798-2.204 1.166-3.224 3.58-3.338 3.872l.972-3.451c-.032.049-.356.502-1.733 2.138-1.49 1.733-.551 4.034-.486 6.091.081 1.944-1.588 6.01-1.798 6.512l2.187-4.52-4.552 14.288s-6.075 9.59-8.149 20.849c-.956 5.071-.972 11.648-.729 17.35a167.4 167.4 0 0 0 1.037 12.571l2.495 21.432h.648c.032-3.434-.746-21.886-1.07-25.952l-.032-.454c-.454-4.633-1.895-12.944-.049-18.905 1.831-5.945 2.155-8.683 2.155-8.683l.13 3.159s.81-7.031 2.235-8.878c0 0 1.037-2.122 2.641-4.617.875-1.393 1.944-2.9 3.11-4.212 2.414-2.722 3.532-2.981 4.455-4.066.34-.373.648-.859.972-1.588l-.129.648-.422 2.284c.033-.097.308-.907 1.604-2.057 1.021-.907 1.329-1.247 1.442-1.361a46.29 46.29 0 0 0-1.377 2.365l-.032.065c-.033.049-.033.081-.033.081.114-.032 1.361-1.409 1.361-1.409l-.535 1.069-.696 1.328c.178-.292.68-.94 1.782-1.296.032-.022.07-.038.113-.049.713-.211 1.118-.373 1.329-.486a1.87 1.87 0 0 0 .21-.13l-1.231 1.49 1.685-1.199-1.523 1.895 1.361-1.28 2.235-2.074-3.11 3.694c.022-.022.076-.059.162-.113.421-.308 1.523-1.085 2.365-1.442.924-.405 1.41-.859 1.523-.972l-1.669 2.171 2.09-1.62-.567.697-1.393 1.701c.146-.097 1.183-.794 2.43-1.345a12.14 12.14 0 0 1 .664-.275c1.248-.454 1.896-.923 2.122-1.102l-2.494 2.333 3.353-1.831-.356.437-1.248 1.571 4.779-3.159-1.604 1.636-1.101 1.118c.178-.146 1.02-.81 2.819-1.49a1.89 1.89 0 0 0 .226-.081c1.507-.567 1.993-.842 2.106-.923l-2.17 1.75 3.321-2.009.437-.259-3.483 3.013c.259-.13 1.766-.956 3.532-1.588.437-.162.874-.292 1.328-.421 1.847-.47 2.689-1.021 2.981-1.28l-1.474 1.345-2.106 1.895 2.818-1.458-2.77 2.252c.178-.097 3.256-1.685 4.488-2.09a11.68 11.68 0 0 0 .972-.373 6.15 6.15 0 0 0 .874-.502l-1.555 1.458 2.317-1.118-1.863 1.993-.956 1.037c.178-.113 2.997-1.895 4.406-2.43.357-.13.648-.292.891-.421.243-.146.422-.292.567-.405l-2.332 2.495 1.701-1.215.729-.518-2.447 3.029 3.37-2.738-2.138 2.867-.989 1.328c.162-.13 2.511-2.252 3.564-2.867.956-.551 1.442-1.037 1.539-1.15l-1.571 2.705 2.819-2.398-2.673 3.11c.291-.259 2.592-2.284 3.839-3.046a1.05 1.05 0 0 1 .114-.065c1.069-.616 1.733-1.604 1.944-1.928l-1.799 3.272c.162-.227 1.507-2.122 2.673-2.9s1.766-1.312 1.847-1.361l-1.263 3.159c.259-.535 1.377-2.803 2.802-3.758l3.224-2.122 2.786 1.701-2.219-.065c.178.081 1.62.616 3.467 1.652 1.636.891 3.548 2.155 5.216 3.839 3.661 3.71 5.589 6.593 7.857 11.777l-1.571-1.928a17.91 17.91 0 0 1 3.094 8.959c.292 5.395 1.021 7.387 1.021 7.387l-1.199-1.458c.146.243 1.944 4.277 1.458 11.858l-.114 1.539c-.453 6.82-.939 10.481-.955 14.71-.011.184-.017.378-.017.583l.567-.016c0-.049 0-.097.017-.146.064-.923.761-3.013 1.036-5.184.422-3.289.567-7.144.924-9.801l.097-.648c.713-4.261 1.021-14.888-.923-22.712-1.912-7.711-5.314-15.827-5.411-16.07.113.113 1.96 1.993 3.564 4.066 1.474 1.895.761 3.904.599 4.325.227-.405 1.199-2.43-.324-5.362-1.652-3.208-5.087-4.909-5.313-5.022.243.032 3.936.697 5.718 4.86 1.264 2.948.988 5.135.713 6.221 5.848-16.848-7.258-16.54-8.392-16.475 6.756-.81 10.32 3.337 10.547 7.841.21 4.261-2.058 10.514-2.333 11.243.34-.68 2.948-6.091 3.564-10.481.713-5.103-.324-9.801-.745-11.47.243.745.729 2.138 1.684 4.05 1.426 2.851.162 6.642.049 6.998.194-.324 2.057-3.532.437-9.833zM149.605 132.9c0 .016-.064.162-.34.275l.34-.275z"/><path d="M147.483 134.212l2.738-2.122-.356.907c-.033.081-.146.275-.503.421l-1.879.794zm-4.455-.097s.178 1.717 2.657 2.478c2.495.762 8.797 1.539 11 2.041 2.187.486 3.418.616 5.2.049 1.798-.551 6.529-2.252 7.663-2.624 0 0-2.576.113-3.726.259l-2.657.275s1.085-.308 2.738-.534 5.184-.324 5.864-.616 1.571-.956 2.009-1.053c.453-.097 1.182.632.453.956s-1.992.453-2.478.988c-.502.535-2.916 3.937-5.103 5.087 0 0 1.701-1.28 2.673-2.544.956-1.279 1.182-2.073.696-2.381-.469-.308-1.62.211-2.656.664-1.021.454-4.164 2.155-7.031 2.317s-7.647-1.005-9.218-1.345c-1.555-.34-4.455-.858-4.876-.794-.421.081 1.182 2.609 4.212 4.148 0 0-1.912-.924-3.256-1.944-1.361-1.037-2.803-2.916-3.548-2.738-.729.178-.616-2.689-.616-2.689z"/><path d="M143.352 135.718s1.62 1.037 4.342 1.102c2.738.065 6.123-.308 8.213.016 0 0-2.381-.016-3.839.162-1.458.195-4.552.146-5.395.081-.826-.065-2.916-.842-3.321-1.361zm-23.619-18.921c-.989 0-2.447-.308-3.953-1.669-2.576-2.381-4.423-4.698-5.006-8.391l-1.134-6.626-.859-5.136c-.016-.081-.826-8.975-.097-10.546.324-.664 1.102-1.474 2.333-1.685 2.074-.356 4.585.923 7.468 3.807l-1.166 1.166c-3.256-3.272-5.168-3.499-6.01-3.353-.616.097-1.005.47-1.134.761-.373.94.016 7.906.226 9.655.081.599.454 2.77.859 5.054l1.134 6.659c.518 3.207 2.171 5.281 4.504 7.419 1.83 1.685 3.483 1.183 3.547 1.15l.535 1.556c-.032.016-.518.178-1.247.178zm76.464-1.766l-.713-1.49c.032-.017 3.337-1.604 5.119-3.969 1.847-2.414 4.617-9.575 5.832-13.009 1.247-3.532 1.442-13.689 1.069-14.774-.356-1.037-1.749-1.701-2.721-1.62-.681.065-2.819 1.442-4.391 2.673l-1.004-1.296c.599-.47 3.726-2.851 5.249-3.013 1.604-.146 3.758.842 4.422 2.722.6 1.733.179 12.263-1.069 15.844-1.344 3.79-4.115 10.886-6.075 13.478-2.025 2.673-5.573 4.374-5.718 4.455z"/><path d="M208.314 82.874s-.097-.94-.486-1.118c-.389-.162-1.199 1.021-2.851 2.09-1.669 1.085-3.337 2.932-4.034 4.342-.68 1.426-.632 2.851-1.037 3.191-.405.324-.988.648-.988.648l-.081.664s1.539-.648 1.896-1.798c.356-1.134.55-3.175 1.603-3.92l1.912-1.49s1.037 11.567.664 13.462c-.372 1.88-.534 3.224-1.701 4.423-1.166 1.183-1.328 1.49-1.895 1.571s-.907-.178-.907-.178-.033 1.215.631 1.312c.681.081 2.625-1.96 3.37-3.564.745-1.587 1.134-3.693 1.426-5.848.291-2.138-1.264-9.963-.778-11.048s1.037-1.717 1.507-1.976c.486-.243 1.749-.761 1.749-.761zm-10.773 24.575l1.523-3.304c.324-.859.454-1.377 2.268-1.993 1.831-.632 1.863-4.261 1.863-4.261s-.421 3.321-2.041 3.613c-1.636.292-1.977.988-2.268 1.75-.276.761-1.199 1.927-1.199 1.927l-.146 2.268zM109.77 85.644s-.033 1.069.939 1.847c.956.778 3.337 2.057 4.05 3.904s.972 2.592 1.896 4.018l1.814 2.576-.049 1.004-2.737-4.39a19.97 19.97 0 0 0-1.944-3.645c-.6-.826-2.025-1.539-2.673-2.155-.665-.632-1.167-1.085-1.345-1.814-.194-.745.049-1.345.049-1.345zm2.705 6.577s-1.053 5.184-1.102 7.938c-.048 2.771 1.021 5.476 2.009 6.254.988.793.843 2.268.843 2.268s-.389-1.07-1.215-1.896-1.572-1.733-1.766-2.268c-.195-.518-.778-5.508-.405-7.662.389-2.155 1.636-4.633 1.636-4.633zm6.48 15.293s-1.701-2.073-2.786-2.495c-1.07-.421-3.095-2.43-3.257-3.596-.178-1.166 1.07-3.499 1.07-3.499s-1.264 2.981.453 4.082c1.734 1.102 1.717 1.361 2.835 2.787 1.134 1.425 2.544 1.814 2.544 1.814l-.859.907zm29.468 8.959s-.713 1.604-.616 4.196c.081 2.575 1.069 3.126 2.203 3.304 1.151.162 3.386-.178 5.363 1.41 1.96 1.571 2.592 2.867 5.07 2.932s5.541-3.046 6.675-3.418c1.15-.373 2.705-.308 3.855-1.782 1.134-1.474-.615-7.371-.615-7.371s1.587 2.738 1.571 5.961-2.851 3.662-3.758 3.662c-.891 0-2.625 1.036-3.856 1.895s-1.701 1.993-4.358 1.733-4.309-2.948-5.184-3.369c-.891-.421-2.43-1.086-4.471-1.215-2.057-.13-4.779-.697-1.879-7.938zm21.918-23.523s2.722-3.305 4.634-4.001c1.895-.697 4.357-.518 7.986-.178 3.629.356 4.698.454 6.221 1.247s1.766 1.814.94 2.171c0 0-1.28-2.365-4.65-2.722s-7.986-.583-9.801.178c-1.798.778-5.33 3.305-5.33 3.305zm-41.617-.453s-.665-.437-.114-1.215c.535-.778 2.139-2.09 6.513-2.867 4.39-.794 6.706-1.28 9.849.535 3.127 1.814 4.212 3.823 4.212 3.823s-3.985-4.163-8.634-4.212c-4.666-.049-6.707.551-8.991 1.393-2.268.842-2.835 2.543-2.835 2.543zm-.373 75.297l-2.705-30.585 1.636-.146 2.333 26.471-1.264 4.26z"/><path d="M148.488 198.445c-5.395 0-10.239-1.636-14.111-4.893-7.986-6.739-11.55-15.94-12.004-20.476-.518-5.071 2.56-9.526 5.492-13.317l1.296 1.005c-2.738 3.531-5.605 7.678-5.168 12.15.421 4.114 3.888 13.008 11.454 19.391 6.755 5.702 16.864 5.994 27.718.81 10.287-4.909 20.882-17.237 22.793-20.104 4.245-6.334-1.83-11.308-2.09-11.518l1.021-1.28c.081.065 7.517 6.123 2.446 13.705-2.057 3.078-12.717 15.568-23.457 20.687-5.379 2.56-10.611 3.84-15.39 3.84z"/><path d="M109.689 282.134l-1.62-.194 9.72-90.332c.081-2.559-.049-4.908-.179-7.176-.275-4.941-.534-9.607 1.588-14.742 3.143-7.582 6.82-7.258 7.225-7.193l-.227 1.62c-.032 0-2.835-.194-5.475 6.205-1.993 4.779-1.75 9.072-1.474 14.029.129 2.3.259 4.682.178 7.306-.227 8.262-9.348 87.124-9.736 90.477zm-42.299-.162c0-.243-.146-25.45-1.539-44.663-.729-9.963-.049-23.814.551-36.029.535-10.887 1.037-21.174.146-23.539-2.009-5.346-.113-13.122-.032-13.446l.275-1.118.972.632c.049.033 5.022 3.256 7.468 4.455 1.264.616 1.993 2.009 2.705 3.354.956 1.798 1.863 3.515 3.872 3.547h.065c2.398 0 5.54-1.846 7.841-3.207 1.539-.907 2.754-1.62 3.613-1.75 1.134-.194 2.479-.113 3.758-.048 1.053.048 2.122.113 3.078.032.94-.065 2.9-1.717 4.471-3.046 1.653-1.393 3.224-2.721 4.569-3.272l1.069-.421c2.624-1.053 6.593-2.641 9.266-4.925 3.256-2.77 8.019-4.406 8.23-4.487l.518 1.555c-.032.016-4.665 1.62-7.679 4.179-2.883 2.463-6.998 4.099-9.72 5.201l-1.069.421c-1.101.453-2.64 1.749-4.131 3.013-2.106 1.766-3.92 3.305-5.394 3.418-1.053.081-2.187.033-3.289-.032-1.264-.065-2.446-.13-3.418.032-.551.081-1.814.826-3.046 1.555-2.624 1.539-5.864 3.467-8.764 3.419-2.965-.049-4.261-2.463-5.297-4.423-.616-1.166-1.183-2.252-1.96-2.641-1.879-.907-5.038-2.883-6.642-3.92-.437 2.317-1.199 7.614.211 11.34 1.004 2.689.535 12.182-.049 24.203-.599 12.166-1.264 25.968-.551 35.834 1.393 19.262 1.539 44.518 1.539 44.777H67.39zm-65.626.13l-1.636-.13c.113-1.264 2.722-31.055 8.327-38.086 5.719-7.161 14.467-14.029 36.061-10.611 0 0-24.089-2.592-34.781 11.631-5.103 6.804-7.938 36.904-7.97 37.196z"/><path d="M25.935 234.409l-1.474-.745 5.006-9.98c.211-1.101 1.669-8.456 5.573-10.87 4.066-2.527 28.852 4.164 31.671 4.941l-.437 1.572c-10.352-2.835-27.767-6.74-30.359-5.12-3.515 2.171-4.828 9.785-4.844 9.866l-.016.13-5.119 10.206z"/><path d="M37.437 213.576l-1.377-.908c.486-.761 12.182-18.662 14.855-21.157 1.004-.939 2.9-2.511 4.892-4.179 2.965-2.463 6.998-5.832 7.517-6.675l.13-.194c.632-1.053 1.296-2.139 2.462-2.365.713-.146 1.458.081 2.252.68l-.972 1.328c-.275-.21-.68-.453-.972-.388-.454.081-.923.858-1.377 1.603l-.113.195c-.616.988-3.515 3.45-7.873 7.079l-4.811 4.115c-2.041 1.895-10.449 14.467-14.612 20.866zm165.272 68.558l-9.736-90.477c-.065-2.624.065-5.006.194-7.306.276-4.957.502-9.25-1.474-14.029-2.657-6.399-5.459-6.205-5.476-6.205l-.226-1.62c.405-.065 4.066-.389 7.209 7.193 2.138 5.135 1.879 9.801 1.603 14.742-.129 2.268-.259 4.617-.178 7.176.227 8.198 9.623 89.522 9.72 90.332l-1.636.194zm42.379-.162h-1.636c0-.259.081-25.515 1.474-44.777.713-9.866.033-23.668-.551-35.834-.599-12.021-1.053-21.514-.048-24.203 1.393-3.726.648-9.023.21-11.34-1.603 1.037-4.779 3.013-6.642 3.92-.777.389-1.36 1.475-1.976 2.641-1.037 1.96-2.317 4.374-5.297 4.423-2.868.032-6.14-1.88-8.765-3.419-1.215-.729-2.478-1.474-3.045-1.555-.956-.162-2.155-.097-3.402-.032-1.102.065-2.236.113-3.305.032-1.458-.113-3.272-1.652-5.378-3.418-1.491-1.264-3.046-2.56-4.131-3.013l-1.07-.421c-2.721-1.102-6.852-2.738-9.72-5.201-3.013-2.559-7.646-4.163-7.695-4.179l.535-1.555c.194.081 4.973 1.717 8.213 4.487 2.673 2.284 6.642 3.872 9.283 4.925l1.069.421c1.345.551 2.9 1.879 4.569 3.272 1.571 1.329 3.531 2.981 4.471 3.046.939.081 2.025.016 3.062-.032 1.296-.065 2.624-.13 3.758.048.875.13 2.09.843 3.629 1.75 2.3 1.361 5.427 3.207 7.841 3.207h.064c2.009-.032 2.9-1.749 3.872-3.547.713-1.345 1.442-2.738 2.689-3.354 2.447-1.199 7.436-4.422 7.485-4.455l.972-.632.275 1.118c.081.324 1.96 8.1-.032 13.446-.891 2.365-.389 12.652.146 23.539.599 12.215 1.263 26.066.55 36.029-1.393 19.213-1.474 44.404-1.474 44.663zm65.562.13c-.033-.292-2.528-30.683-7.971-37.196-12.587-15.017-34.781-11.631-34.781-11.631 21.594-3.435 30.342 3.45 36.061 10.611 5.605 7.031 8.213 36.822 8.327 38.086l-1.636.13z"/><path d="M286.479 234.409l-5.119-10.206-.016-.13c-.016-.081-1.345-7.695-4.844-9.866-2.592-1.62-20.007 2.285-30.375 5.12l-.421-1.572c2.802-.777 27.605-7.468 31.655-4.941 3.92 2.414 5.378 9.769 5.572 10.87l5.006 9.98-1.458.745z"/><path d="M274.977 213.576c-4.163-6.399-12.587-18.971-14.612-20.866-.972-.907-2.835-2.462-4.812-4.115-4.357-3.629-7.257-6.091-7.873-7.079l-.113-.195c-.47-.745-.94-1.522-1.377-1.603-.308-.065-.697.178-.988.388l-.972-1.328c.81-.599 1.555-.826 2.268-.68 1.15.226 1.814 1.312 2.462 2.365l.113.194c.519.843 4.569 4.212 7.533 6.675l4.877 4.179c2.689 2.495 14.369 20.396 14.871 21.157l-1.377.908zm-89.78-46.446l-1.636-3.839v-22.664h1.636v26.503zM118.55 95.332l-.227 1.102c.081-.535.178-.94.227-1.102zm31.282 38.734l-.453.049s.178-.033.453-.049zm-5.508-.324l-.308.227c.017-.016.13-.13.308-.227zm29.695-1.134l.016.081s0-.032-.016-.081z"/><path fill-rule="evenodd" d="M199.858 84.3l-.195 3.078-.486 7.387-.955 13.235c-.26 1.993-.357 6.691-.357 6.691l-.324-4.066-.324 7.144-.356-2.284-.162 5.248-.324-2.624-.292 4.115-.21-1.815-.292 6.74-.324-2.609-.535 3.273-.145-2.155-.081 4.504-.292-2.544-.389 4.666-.178-2.171-.81 6.205-.032-2.608-.6 4.811c-.113.761-1.101 2.657-1.101 2.657l.55-2.608-2.187 6.058.276-2.122-2.268 5.508.583-2.171-2.317 4.666.616-2.722-3.224 5.913 1.264-3.628-3.969 6.836.777-2.511-3.871 5.864 1.652-3.709c-.113.178-1.976 3.094-3.839 5.184-1.718 1.927-4.65 2.867-5.249 3.045.486-.162 2.446-.939 3.629-2.738l-7.841 3.807 1.215-1.117c-.162.081-2.949 1.409-5.751 1.668-2.738.243-6.383-.923-6.788-1.053l2.527 1.377-3.888-.939 1.944.972c-.405-.179-1.263-.422-3.062-.713-3.434-.551-4.941-1.879-5.119-2.041l1.896 2.332-3.192-2.543 1.555 2.057-3.029-2.673.729 1.28-2.722-2.867.908 2.057-2.933-3.645 1.086 2.139-2.317-2.933.648 2.139c-.081-.114-.81-1.102-2.802-3.224-1.863-1.96-2.414-3.515-2.544-3.888l.778 2.867-2.868-5.297.195 2.138-1.685-4.876.437 2.819c-.113-.324-.615-2.592-1.409-3.888l-.016 2.187-1.507-4.568.259 2.041s-.777-2.608-1.749-4.763c-.859-1.912-1.393-3.71-1.523-4.115l.713 3.224-2.041-5.929.307 2.268s-1.134-3.159-1.377-5.136l.065 2.139-1.02-5.119-.146 1.555-.146-6.982-.761 2.818-.114-7.111-.858 3.466.259-7.225-.843 3.564s-.032-5.362-.291-7.16l-1.199-6.253.227 4.406s-1.086-4.909-.616-8.084l1.199-6.707c-.178 1.183-.308 2.948.292 4.099.016.016.016.032.032.049.875 1.733.907 2.997.907 3.142v-2.219l.632 6.383.146-3.694.437 3.872.178-1.895c-.048.826-.048 2.332.422 3.936.599 2.122.486 4.925.486 5.168l.145-4.86 1.102 6.982-.275-4.633c.064.599.291 1.555.891 2.786.972 2.009 1.004 4.504 1.004 4.877l.162-4.326 1.345 6.691-.616-4.52c.13.324.405.81.94 1.539 1.231 1.669 1.571 4.617 1.652 4.909l-.664-4.796 2.414 6.513-1.296-5.184c.081.227.469.988 2.219 2.819 1.669 1.765 2.236 5.2 2.398 5.832l-.681-4.828 2.527 6.188-1.182-4.681c.097.356.389 1.036 1.263 1.944 1.134 1.182 1.62 4.033 1.701 4.503l-.615-4.325 1.539 3.564-.324-2.722 1.069 3.208c.016-.373.194-.826.794-1.231 1.118-.746 1.539-1.183 1.685-1.361l-.713 1.263c.259-.405 1.101-1.539 2.624-1.976 1.296-.373 1.863-.697 2.09-.859l-1.944 1.782 4.374-2.624-2.09 1.733c.324-.226 1.685-1.215 3.337-1.555 1.523-.308 2.317-.729 2.56-.875l-2.138 1.475 4.05-1.588-1.88 1.102c.308-.146 1.394-.584 2.366-.389 1.166.21 2.851 1.523 2.851 1.523l-1.458-1.718 3.191 2.609-1.053-1.329c.227.243 1.329 1.248 3.224 1.134 2.041-.097 4.471-1.182 4.666-1.263l-2.479 1.474 6.674-3.58-1.247 1.393c.113-.097 1.15-.988 2.867-1.021 1.718-.048 3.467.697 3.662.778l-1.944-1.296 3.985 1.879-1.879-1.75c.226.195 1.328 1.053 3.726 1.831 2.575.842 3.126 1.895 3.191 2.025l-.518-1.879 1.749 3.515c-.048-.21-.583-2.414.438-3.159 1.004-.745 1.296-1.247 1.344-1.312l-.518 2.236 1.96-3.386-.632 3.191 2.301-5.281.016 2.074 1.361-4.099.162 2.3 1.425-5.394.421 1.928 1.134-4.569-.421 3.597 1.653-6.254.291 2.803s-.081-2.333 1.118-5.978l.324 2.608s.259-2.608.68-4.6c.405-1.993.584-4.423.584-4.423v3.224l.81-8.149.421 2.576s-.632-6.48.178-9.817l1.215-4.99.713-2.884zm-56.49 50.868c.405.842 1.88 1.506 1.88 1.506s-.227.049-.551.178c-.065.033-.6.357-.762 1.329l.065-.664s-.34.696-.389 1.296v-.794c0 0-.324.227-.243 1.263l.114 1.329-.211-.875.227 2.171-.227-1.053.243 2.219-.178-.632.454 3.078.064-1.344s.146 1.15.276 1.555.081.859.081.859l.243-.519-.114 1.491.292-.924c-.016.049-.016.146 0 .389.016.032.016.081.016.13.016.162.049.372.097.631a1.9 1.9 0 0 0 .049.211c.227 1.199.13 1.766.13 1.766l.372-.6-.389.875.567-.34-.178.486.6-.211s-.405.357-.243.843-.033.842-.033.842.292-.324 1.021-.729c.648-.34.939-.567 1.004-.615l-.615.793 1.15-.745-.697.713 1.685-1.069c.405-.276.648-.551.713-.632l-.632 1.021 1.166-1.183-.307.632s.842-.956 1.36-2.041l.049.307.065.438.632-1.96-.13.793s.243-.842.713-1.441c.389-.535.534-.827.567-.891l-.178.534c.048-.065.356-.518.696-.858l.729-.746c-.065.098-.551.94-.518.924.048 0 .923-1.021.923-1.021s1.847.389 4.002.13c2.17-.259 2.964-.632 2.964-.632l.373.518-.276-.907 1.313 1.361-.308-.761.858 1.36-.259-1.231.875 1.928v-.729l.875 2.219-.276-1.344.859 2.3.13.357v-1.086l.129.535.033.129.097.308.275.664c.065.098.114.211.178.308v-.713s.146.713 1.102 1.345c.94.616 2.268.437 2.268.437s-1.442-.145-1.571-.615c-.081-.243-.211-.47-.324-.632.243.275.745.697 1.441.794 1.037.146 2.301-.276 2.301-.276l-.47.665 1.166-.875.405-1.474v.972s.292-.422.405-1.604.114-1.669.114-1.669l.34 1.604-.178-2.754.372 1.085-.064-.777-.292-3.337.243.988-.745-3.273.858 1.313-.664-2.236.664.907s-.486-1.344-.518-2.138l.275.421s-.113-.664-.356-1.183c-.259-.502-.891-.777-.891-.777s.13-.033.292-.065c-.195-.065-.341-.065-.341-.065s.616-.146 1.232-.453c-.162-.065-.26-.146-.26-.195.049-.356.567-.227.794-.551s.357-.988.357-.988l-.422.486c.065-.097.243-.405.146-.858-.113-.567-.745-1.005-.745-1.005l.227.81c-.049-.113-.162-.34-.535-.81-.534-.713-2.154-.583-2.154-.583s.599.162.858.308.907.664.907.664l-1.36-.389.761.502s-.713-.064-1.571 0l-1.556.13.648.275-1.425.049 1.263.243s-1.182.032-2.559.259c-.681.114-1.053.13-1.231.114l1.134.291s-.891.016-1.847 0l.162.081s-3.256.308-5.071.713c-1.49.324-3.11.032-4.212-.016l-1.733.243 1.766-.632.307-.178-1.782.372-2.77.357 1.523-.502-2.592.307 1.604-.437c-.146.016-.454.049-.956 0-.47-.032-1.28.032-1.766.081.259-.049.664-.162 1.199-.421.016 0 .032 0 .032-.016-.777-.017-1.279.032-1.279.032l.372-.243c-1.28.162-2.171.632-2.268.68l.972-.81c-.081.033-.777.276-1.312.422-.551.145-1.345.275-1.345.275l1.118-.535-1.539.357.94-.389-1.604.308 1.021-.259c-.146.016-.389.048-.875.048-.438.016-.729.114-.94.227l.486-.356s-.437.081-1.199.55a.83.83 0 0 0-.324.389c-.064.308-.016.6.081.843z"/><path d="M168.333 149.132c-.098-.097-.162-.178-.179-.211.017.033.098.114.179.211z"/></g><path d="M141.424 93.696c-.145.599-.502 1.296-1.441 1.555-1.572.454-3.483.421-4.034-1.409-.178-.567.275-1.15.875-1.15h.534.13s.032 1.247.939 1.247c.827 0 1.199-.518 1.151-1.312h.097l.81-.032c.599-.016 1.069.518.939 1.102zm41.132-.065c-.129.599-.437 1.247-1.377 1.507-1.571.454-3.483.421-4.034-1.393-.178-.583.276-1.166.875-1.166h.664s.033 1.247.94 1.247c.826 0 1.409-.34 1.28-1.312h.146l.648-.016c.583-.016 1.004.551.858 1.134z" fill="#2d303a"/><path d="M139.869 93.874c-.178.648-1.247 1.102-2.09.551-.631-.405-.518-1.312-.421-1.733h.13s.032 1.247.939 1.247c.827 0 1.199-.518 1.151-1.312h.097c.146.324.308.826.194 1.247zm39.415.534c-.778-.356-.778-1.49-.778-1.831h.178s.033 1.247.94 1.247c.826 0 1.409-.34 1.28-1.312h.146c.421 1.426-.648 2.414-1.766 1.895z" fill="#515560"/><path d="M204.329 37.271c.113-.356 1.377-4.147-.049-6.998-.955-1.912-1.441-3.305-1.684-4.05.421 1.669 1.458 6.367.745 11.47-.616 4.39-3.224 9.801-3.564 10.481.275-.729 2.543-6.982 2.333-11.243-.227-4.504-3.791-8.651-10.547-7.841 1.134-.065 14.24-.373 8.392 16.475.275-1.085.551-3.272-.713-6.221-1.782-4.163-5.475-4.828-5.718-4.86.226.113 3.661 1.814 5.313 5.022 1.523 2.932.551 4.957.324 5.362.162-.421.875-2.43-.599-4.325-1.604-2.074-3.451-3.953-3.564-4.066.097.243 3.499 8.359 5.411 16.07 1.944 7.825 1.636 18.452.923 22.712l-.097.648c-.34-2.689-.567-6.707-.567-6.707s-.114 2.057-.276 3.775c-.081.826-.405 1.895-.729 2.786.044-.497.081-1.01.114-1.539.486-7.582-1.312-11.615-1.458-11.858l1.199 1.458s-.729-1.993-1.021-7.387a17.91 17.91 0 0 0-3.094-8.959l1.571 1.928c-2.268-5.184-4.196-8.068-7.857-11.777-1.668-1.685-3.58-2.948-5.216-3.839 2.073.437 4.471 1.993 5.087 2.414l-3.759-2.851c.421.292 1.701 1.102 3.726 1.604 2.495.616 5.443 3.418 5.443 3.418l-2.689-3.402 2.916 2.43s-.664-.778-2.025-2.932c-1.085-1.733-2.883-1.75-3.548-1.685.616-.097 2.22-.308 3.467-.243 1.231.081 3.823 2.009 4.893 2.851-.681-.583-1.977-1.733-2.884-2.965-1.296-1.75-4.795-2.56-4.795-2.56l3.402-.292s-.47 0-2.236-.194c-1.523-.162-3.661.891-4.277 1.199.697-.405 3.386-1.944 4.601-2.398.745-.292 2.139-.275 3.273-.211-.503-.065-1.102-.162-1.734-.308-1.652-.356-3.288.194-3.872.437.438-.211 1.588-.729 3.905-1.928 2.057-1.053 3.661-.599 4.552-.146-6.334-3.872-12.831.324-12.831.324s-2.025 2.414-8.132 5.103c-2.511 1.102-4.536 2.948-6.059 4.747-1.247.761-3.548 2.786-3.839 3.046l2.673-3.11-2.819 2.398 1.571-2.705c-.097.113-.583.599-1.539 1.15-1.053.616-3.402 2.738-3.564 2.867l.989-1.328 9.396-8.716c-1.199 1.037-3.095 2.527-5.136 3.532-1.053.518-2.414 1.474-3.774 2.543l-1.701 1.215 2.332-2.495c-.145.113-.324.259-.567.405l4.115-4.131-8.456 5.945 1.863-1.993-2.317 1.118 1.555-1.458c-.113.081-.405.275-.874.502l6.933-6.755c-.664.551-2.576 2.041-7.144 4.52-1.264.697-2.317 1.377-3.191 2.009l1.474-1.345c-.292.259-1.134.81-2.981 1.28-.454.13-.891.259-1.328.421l7.435-8.051-7.921 6.885-3.321 2.009 2.17-1.75c-.113.081-.599.356-2.106.923l8.943-8.294-10.887 8.748 1.604-1.636-4.779 3.159 1.248-1.571 4.633-3.969-4.164 2.867 2.56-2.9c-.243.211-2.155 1.944-5.346 3.807a11.45 11.45 0 0 0-.972.632c-1.247.551-2.284 1.247-2.43 1.345l1.393-1.701c4.488-4.115 12.928-10.789 14.402-11.956l-13.495 10.06 2.738-2.705c-.243.194-1.085.778-2.948 1.62-1.102.502-2.9 2.381-4.439 4.147-.086.054-.14.092-.162.113l3.11-3.694-2.235 2.074 4.196-5.848-4.698 5.071c-.211.113-.616.275-1.329.486-.043.011-.081.027-.113.049l4.034-5.864-5.12 5.832.535-1.069s-1.247 1.377-1.361 1.409c0 0 0-.032.033-.081l.032-.065 4.617-6.788c-.486.632-1.474 1.669-3.272 2.867-.94.632-1.831 1.62-2.592 2.689l.129-.648c-.324.729-.632 1.215-.972 1.588l2.382-4.99c-.243.437-1.62 2.608-7.339 8.44-.972.988-1.831 2.673-2.608 4.828-1.604 2.495-2.641 4.617-2.641 4.617-1.425 1.847-2.235 8.878-2.235 8.878l-.13-3.159s-.324 2.738-2.155 8.683c-1.846 5.962-.405 14.272.049 18.905l.032.454c-.518-1.247-1.004-3.386-1.101-3.775l.47 3.24s-.292-.745-.859-2.414c-.308-.956-.551-2.786-.599-3.127l.34 6.869-1.361-8.845c-.243-5.702-.227-12.28.729-17.35 2.074-11.259 8.149-20.849 8.149-20.849l4.552-14.288-2.187 4.52c.21-.502 1.879-4.568 1.798-6.512-.065-2.057-1.004-4.358.486-6.091 1.377-1.636 1.701-2.09 1.733-2.138l-.972 3.451c.114-.292 1.134-2.705 3.338-3.872 1.944-1.004 2.559-1.604 2.721-1.798l-2.819 4.115 4.715-5.119-2.042 3.127s3.759-2.738 5.67-3.467c1.669-.664 3.386-1.96 3.775-2.268l-3.175 2.819c.421-.324 4.017-3.094 7.387-4.406 3.564-1.409 4.277-2.041 4.277-2.041l-1.474 1.879c.162-.097 2.64-1.636 5.329-1.895 2.268-.227 2.771-.324 2.884-.34l-2.867 1.62c.486-.211 4.746-1.928 9.282-1.75s5.767 2.317 5.897 2.576l-.616-1.847s2.835 1.685 8.376 3.499 9.833 2.349 9.833 2.349l-4.115.049s7.193 1.345 10.19 6.075c2.819 4.423 5.411 6.156 5.719 6.367l-3.094-1.442c.275.162 4.244 2.56 5.896 8.959 1.62 6.302-.243 9.509-.437 9.833z" fill="#262626"/><path d="M198.918 24.927c-.777-.794-3.726-3.256-9.606-1.879l-.211.049-1.75.47-1.36.437-2.738.956c-5.071 1.928-9.655 4.293-9.898 4.423l8.181-5.638 1.263-.859-1.442.745-8.715 4.52 8.262-4.795 2.316-1.345 1.005-.599 1.409-.81.47-.275-.535.227-1.603.713-1.134.486-2.641 1.166-10.579 4.617c.195-.162 3.986-3.143 8.489-5.783.794-.47 1.604-.94 2.43-1.361l1.069-.551c.54-.259 1.08-.508 1.62-.745 1.377-.583 2.738-1.053 3.986-1.312-.405.065-2.155.34-4.617.956-.632.162-1.296.34-2.009.551l-1.361.405a55.45 55.45 0 0 0-3.078 1.102c-4.115 1.571-8.651 3.92-12.312 7.339.502-.551 5.135-5.346 10.514-8.116.972-.502 1.96-.94 2.948-1.247.324-.13.664-.227 1.005-.308-.098 0-.535.065-1.232.194-.923.178-2.316.47-3.952.891-3.986 1.037-9.364 2.884-12.75 5.864.308-.34 3.759-3.872 9.396-6.998.94-.518 1.912-1.021 2.965-1.49.443-.216.902-.416 1.377-.599.632-.275 1.296-.535 1.96-.761a42.22 42.22 0 0 1 3.062-.94c-.729.178-1.798.47-3.143.907l-2.074.713c-.486.173-.988.362-1.506.567-1.053.405-2.187.859-3.386 1.393a76.07 76.07 0 0 0-11.275 6.156c.162-.162 3.483-3.71 8.57-6.853a39.7 39.7 0 0 1 2.98-1.685l1.475-.697c.648-.292 1.312-.567 2.008-.81 1.183-.454 2.43-.826 3.694-1.118 0 0-1.733.113-4.552.81a57.49 57.49 0 0 0-2.511.697c-.605.184-1.242.4-1.912.648-1.215.421-2.511.956-3.888 1.588-4.552 2.074-9.833 5.297-15.017 10.303 0 0 4.131-6.059 11.664-10.87a4.54 4.54 0 0 1 .372-.243c-.064.032-.243.097-.486.227-2.284 1.102-11.421 5.783-18.403 13.219.243-.308 5.751-7.63 12.49-13.835a65.46 65.46 0 0 1 2.528-2.219c.486-.405.988-.794 1.474-1.183a44.54 44.54 0 0 1 1.523-1.118c.637-.454 1.274-.88 1.911-1.28 0 0-1.215.275-3.191 1.134-.648.275-1.377.616-2.171 1.037a45.14 45.14 0 0 0-2.122 1.215c-1.021.632-2.106 1.377-3.224 2.236-3.208 2.479-6.755 5.978-10.093 10.903.098-.275 2.042-5.816 5.427-10.951a33.22 33.22 0 0 1 1.685-2.349 20 20 0 0 1 1.231-1.458 17.79 17.79 0 0 1 1.086-1.118c.097-.097.178-.194.291-.292-.032.016-.178.113-.405.292-.307.211-.761.583-1.36 1.118-.432.389-.929.875-1.491 1.458-.632.664-1.328 1.442-2.057 2.365-2.236 2.77-4.86 6.804-7.323 12.442 0 0-.631-6.14 2.333-10.579 0 0-6.075 3.775-7.63 14.483 0 0-.292-8.327 6.626-15.017l1.15-1.118 2.414-2.398 1.506-1.539 1.021-1.085c1.377-1.49 1.976-2.236 2.155-2.479l-1.653 2.446-.713 1.069-1.02 1.507-.308.454c.113-.146.243-.292.373-.454.421-.502.891-1.021 1.377-1.523a18.87 18.87 0 0 1 1.182-1.085c1.426-1.215 3.046-2.187 4.763-2.527 4.617-.907 6.593-1.993 7.241-2.446l-5.362 4.001c1.815-1.199 5.168-2.916 9.153-2.722 5.719.275 7.387-.454 7.549-.518l-7.306 5.265-1.506 1.102-1.491 1.069-2.9 2.09-2.203 1.604 2.9-1.523 3.71-1.96 1.814-.94 1.912-1.004 7.419-3.904-5.686 4.293-1.442 1.085-1.279.956-1.41 1.069c.34-.243.859-.599 1.523-1.053.421-.275.907-.583 1.442-.907.518-.324 1.101-.664 1.717-1.004 3.629-2.041 8.489-4.082 12.004-3.078 5.897 1.685 7.371 1.75 7.533 1.75l-7.776-.113s7.971.535 10.903 2.867c2.025 1.62 4.196 2.624 5.362 3.094-2.624-.94-10.66-3.483-15.034-1.442a35.76 35.76 0 0 1-1.895.826 53.48 53.48 0 0 1-1.895.729c-.314.097-.611.194-.891.292.34-.065.696-.146 1.053-.227l2.478-.437c2.835-.454 6.01-.778 8.716-.535 5.67.47 9.315 2.527 10.384 3.224-.923-.551-3.677-1.928-7.679-1.409-2.867.373-5.054.988-6.399 1.458-.907.308-1.442.551-1.539.599a36.03 36.03 0 0 1 1.815-.421c2.203-.47 5.913-1.118 8.488-.794 3.645.47 6.043 3.013 6.335 3.321-.341-.211-3.613-2.219-7.209-1.831-1.604.162-3.257.713-4.65 1.28-.567.227-1.085.47-1.523.697a16.35 16.35 0 0 0-1.101.567l-.632.356c.049-.016.324-.13.761-.275l1.313-.421c.534-.162 1.15-.324 1.814-.47 1.652-.373 3.564-.632 5.184-.373 3.094.47 5.087 2.365 5.686 3.013z" fill="#3a3a3a"/><g fill="#262626"><path d="M144.016 133.969c.017-.016.13-.13.308-.227l-.308.227zm5.363.146s.178-.033.453-.049l-.453.049zm18.775 14.806c.017.033.098.114.179.211-.098-.097-.162-.178-.179-.211z"/><path fill-rule="evenodd" d="M199.663 87.378l-.486 7.387c-1.312 6.269-2.332 17.836-2.332 17.836l-.308-1.814-1.053 7.5v-1.62l-.697 4.893-.583-1.863-1.166 7.03v-3.515l-.648 5.443v-4.212l-1.053 6.108v-2.463l-.47 4.974-.357-2.22-1.603 5.654v-1.895l-1.005 4.131v-1.718l-1.02 3.483v-2.284l-1.41 5.751v-2.041l-.648 3.224v-3.224l-1.344 5.038v-2.057l-1.361 3.224.34-1.831c-.146.502-.486 1.231-1.215 2.074-1.409 1.636-2.106 4.163-2.106 4.163l.292-1.879-3.176 4.568.308-1.344-1.085 1.782.502-1.718c-.065.146-.292.616-1.166 1.426-1.005.94-1.637 1.75-1.718 1.847l.47-1.572s-.291.665-2.025 1.637-2.235 1.879-2.235 1.879l.243-1.329-1.41 1.766.729-1.701s-.761 1.167-2.576 1.734l-4.989 1.571 1.215-.923c-.162.081-1.426.81-3.03 1.02-1.701.211-6.496-.227-6.496-.227l1.102-.437s-1.215.194-3.548-.178-3.467-1.442-3.467-1.442l1.507.356c-2.203-1.279-2.932-2.332-2.932-2.332l.469 1.62-2.057-2.592.697 2.284-2.981-4.439.745 2.77-2.333-3.872.826 2.641-2.624-5.459.211 1.668-2.155-4.698.356 2.511-1.539-4.05.308 2.673-2.203-5.654v1.701l-1.555-4.73.47 3.58s-1.345-2.948-2.673-4.73c-1.264-1.734-1.296-5.508-1.296-5.751v2.835l-1.766-5.362v2.154l-1.442-6.366-.227 1.49-.858-5.249-.324 2.414-1.053-4.05.178 2.657-1.41-7.533v1.685l-.437-3.662-.162 1.718-.389-4.455-.081 1.263-.534-3.159v1.815l-.324-3.483-.195 1.312-.194-4.909-.081 1.928c0-.162-.016-1.037-.324-3.58a7.27 7.27 0 0 1-.065-1.312c.875 1.733.907 2.997.907 3.142v-2.219l.389 3.953.243 2.43.146-3.694.437 3.872.178-1.895c-.048.826-.048 2.332.422 3.936.599 2.122.486 4.925.486 5.168l.145-4.86 1.102 6.982-.275-4.633c.064.599.291 1.555.891 2.786.972 2.009 1.004 4.504 1.004 4.877l.162-4.326 1.345 6.691-.616-4.52c.13.324.405.81.94 1.539 1.231 1.669 1.571 4.617 1.652 4.909l-.664-4.796 2.414 6.513-1.296-5.184c.081.227.469.988 2.219 2.819 1.669 1.765 2.236 5.2 2.398 5.832l-.681-4.828 2.527 6.188-1.182-4.681c.097.356.389 1.036 1.263 1.944 1.134 1.182 1.62 4.033 1.701 4.503l-.615-4.325 1.539 3.564-.324-2.722 1.069 3.208c.016-.373.194-.826.794-1.231 1.118-.746 1.539-1.183 1.685-1.361l-.713 1.263c.259-.405 1.101-1.539 2.624-1.976 1.296-.373 1.863-.697 2.09-.859l-1.944 1.782 4.374-2.624-2.09 1.733c.324-.226 1.685-1.215 3.337-1.555 1.523-.308 2.317-.729 2.56-.875l-2.138 1.475 4.05-1.588-1.88 1.102c.308-.146 1.394-.584 2.366-.389 1.166.21 2.851 1.523 2.851 1.523l-1.458-1.718 3.191 2.609-1.053-1.329c.227.243 1.329 1.248 3.224 1.134 2.041-.097 4.471-1.182 4.666-1.263l-2.479 1.474 6.674-3.58-1.247 1.393c.113-.097 1.15-.988 2.867-1.021 1.718-.048 3.467.697 3.662.778l-1.944-1.296 3.985 1.879-1.879-1.75c.226.195 1.328 1.053 3.726 1.831 2.575.842 3.126 1.895 3.191 2.025l-.518-1.879 1.749 3.515c-.048-.21-.583-2.414.438-3.159 1.004-.745 1.296-1.247 1.344-1.312l-.518 2.236 1.96-3.386-.632 3.191 2.301-5.281.016 2.074 1.361-4.099.162 2.3 1.425-5.394.421 1.928 1.134-4.569-.421 3.597 1.653-6.254.291 2.803s-.081-2.333 1.118-5.978l.324 2.608s.259-2.608.68-4.6c.211-1.005.357-2.139.454-2.997l.13-1.426v3.224-.049l.81-8.1.421 2.576s-.632-6.48.178-9.817l1.215-4.99c.178.032.356.113.518.194zm-24.85 45.813l-.422.486c.065-.097.243-.405.146-.858-.113-.567-.745-1.005-.745-1.005l.227.81c-.049-.113-.162-.34-.535-.81-.534-.713-2.154-.583-2.154-.583s.599.162.858.308.907.664.907.664l-1.36-.389.761.502s-.713-.064-1.571 0l-1.556.13.648.275-1.425.049 1.263.243s-1.182.032-2.559.259c-.681.114-1.053.13-1.231.114l1.134.291s-.891.016-1.847 0l.162.081s-3.256.308-5.071.713c-1.49.324-3.11.032-4.212-.016l-1.733.243 1.766-.632.307-.178c-.567.146-1.247.308-1.782.372-1.004.114-2.575.324-2.77.357l1.523-.502-2.592.307 1.604-.437c-.146.016-.454.049-.956 0-.47-.032-1.28.032-1.766.081.259-.049.664-.162 1.199-.421.016 0 .032 0 .032-.016-.777-.017-1.279.032-1.279.032l.372-.243c-1.28.162-2.171.632-2.268.68l.972-.81c-.081.033-.777.276-1.312.422-.551.145-1.345.275-1.345.275l1.118-.535-1.539.357.94-.389-1.604.308 1.021-.259c-.146.016-.389.048-.875.048-.438.016-.729.114-.94.227l.486-.356s-.437.081-1.199.55a.83.83 0 0 0-.324.389c-.016.097-.032.178-.032.276 0 .21.049.405.113.567.405.842 1.88 1.506 1.88 1.506s-.227.049-.551.178c-.065.033-.6.357-.762 1.329l.065-.664s-.34.696-.389 1.296c0 0-.016-.503 0-.794 0 0-.324.227-.243 1.263l.114 1.329-.211-.875.227 2.171-.227-1.053.243 2.219-.178-.632.454 3.078.064-1.344s.146 1.15.276 1.555.081.859.081.859l.243-.519-.114 1.491.292-.924c-.016.049-.016.146 0 .389.016.032.016.081.016.13.016.162.049.372.097.631a1.9 1.9 0 0 0 .049.211c.227 1.199.13 1.766.13 1.766l.372-.6-.389.875.567-.34-.178.486.6-.211s-.405.357-.243.843-.033.842-.033.842.292-.324 1.021-.729c.648-.34.939-.567 1.004-.615l-.615.793.291-.194.859-.551-.697.713 1.685-1.069c.405-.276.648-.551.713-.632l-.632 1.021 1.166-1.183-.307.632s.842-.956 1.36-2.041l.049.307c.016.908-.016 1.75-.016 1.75l1.004-1.361-.259 2.058.826-1.426.049 1.879.356-1.28 1.118 1.588v-1.636l1.312 1.571c-.032-.129-.275-1.393-.194-1.523.065-.129.664 1.588.664 1.588l.648-1.636.049 1.636 1.134-1.539v1.102l.826-1.377-.243 1.846.956-1.49.453 1.49.308-1.976.794 1.361-.049-1.717 1.28 2.041-.097-1.636 1.409.874-.745-1.393 1.588.875-.794-.875s1.668 1.134 1.895 1.134c.195 0-2.106-1.911-2.381-2.138.178.097 1.069.534 2.608.194l.13.357v-.389c.048 0 .097-.016.162-.033l.097.308c.081.211.178.438.275.664.065.098.114.211.178.308v-.713s.146.713 1.102 1.345c.065.043.13.081.194.113a3.28 3.28 0 0 0 1.475.341c.356.016.599-.017.599-.017s-.275-.032-.583-.097c-.421-.097-.907-.259-.988-.518-.081-.243-.211-.47-.324-.632.226.243.664.632 1.296.761a3.01 3.01 0 0 0 .145.033c1.037.146 2.301-.276 2.301-.276l-.47.665 1.166-.875.405-1.474v.972s.292-.422.405-1.604.114-1.669.114-1.669l.34 1.604-.178-2.754.372 1.085-.064-.777-.292-3.337.243.988-.745-3.273.858 1.313-.664-2.236.664.907s-.486-1.344-.518-2.138l.275.421s-.113-.664-.356-1.183c-.259-.502-.891-.777-.891-.777s.13-.033.292-.065c-.195-.065-.341-.065-.341-.065l.276-.081c.243-.065.599-.194.956-.372-.162-.065-.26-.146-.26-.195.049-.356.567-.227.794-.551s.357-.988.357-.988z"/></g><path d="M165.789 150.039c-.227 0-1.895-1.134-1.895-1.134l.794.875-1.588-.875.745 1.393-1.409-.874.097 1.636-1.28-2.041.049 1.717-.794-1.361-.308 1.976-.453-1.49-.956 1.49.243-1.846-.826 1.377v-1.102l-1.134 1.539-.049-1.636-.648 1.636s-.599-1.717-.664-1.588c-.081.13.162 1.394.194 1.523l-1.312-1.571v1.636l-1.118-1.588-.356 1.28-.049-1.879-.826 1.426.259-2.058-1.004 1.361.016-1.733.065.421.632-1.96-.13.793s.243-.842.713-1.441c.389-.535.534-.827.567-.891l-.178.534c.048-.065.356-.518.696-.858l.729-.746c-.065.098-.551.94-.518.924.048 0 .923-1.021.923-1.021s1.847.389 4.002.13c2.17-.259 2.964-.632 2.964-.632l.373.518-.276-.907 1.313 1.361-.308-.761.858 1.36-.259-1.231.875 1.928v-.729l.875 2.219-.276-1.344.859 2.3c-1.62.357-2.543-.162-2.624-.21l2.397 2.154z" fill="#000"/><g fill="#3a3a3a"><path d="M196.521 107.514c-.033 4.018-1.847 9.591-1.847 9.591l-.178-1.183-1.102 3.256v-1.199l-1.312 5.282v-1.701l-.405 3.11-.34-1.669-.924 3.338v-1.718l-.615 3.824-.227-2.106-.616 3.288v-1.798l-.794 3.386v-2.56l-1.587 5.46-.34-1.928-.713 3.143-.114-1.799-1.231 2.576-.259-1.361-.859 2.317-.307-2.155-.875 3.824.081-4.617-.745 2.511.437-3.305-1.053 1.636.356-1.928s-.356.826-1.15 1.086c-.777.243-1.571 1.36-1.571 1.36l.259-1.992-.616 1.377v-1.474s-.081.437-.907 1.036c-.826.584-1.037.989-1.037.989l.195-1.604c-.049.291-.373 1.134-2.106 1.393a8.58 8.58 0 0 1-1.053.097c.243-.065.599-.194.956-.372-.162-.065-.26-.146-.26-.195.049-.356.567-.227.794-.551s.357-.988.357-.988l-.422.486c.065-.097.243-.405.146-.858-.113-.567-.745-1.005-.745-1.005l.227.81c-.049-.113-.162-.34-.535-.81-.534-.713-2.154-.583-2.154-.583s.599.162.858.308.907.664.907.664l-1.36-.389.761.502s-.713-.064-1.571 0l-1.556.13.648.275-1.425.049 1.263.243s-1.182.032-2.559.259c-.681.114-1.053.13-1.231.114l1.134.291h-1.847l.162.081-5.071.713c-1.49.324-3.11.032-4.212-.016l-1.733.243 1.766-.632.307-.178-1.782.372-2.77.357 1.523-.502-2.592.307 1.604-.437c-.146.016-.454.049-.956 0-.47-.032-1.28.032-1.766.081.259-.049.664-.162 1.199-.421.016 0 .032 0 .032-.016-.777-.017-1.279.032-1.279.032l.372-.243c-1.28.162-2.171.632-2.268.68l.972-.81c-.081.033-.777.276-1.312.422-.551.145-1.345.275-1.345.275l1.118-.535-1.539.357.94-.389-1.604.308 1.021-.259c-.146.016-.389.048-.875.048-.438.016-.729.114-.94.227l.486-.356s-.437.081-1.199.55a.83.83 0 0 0-.324.389c-.016.097-.032.178-.032.276-1.069.599-1.085 2.851-1.085 2.98l-.665-1.863s-.081 1.701-.923 2.544c-.794.81-.065 3.029 0 3.207l-2.317-3.207.94 3.175-2.576-4.293 1.053 3.434-2.171-3.871.373 2.608-2.543-5.589.939 3.24-2.754-5.249.762 2.867-2.673-5.41.745 3.483-2.997-6.74.275 2.398-1.587-5.184.356 2.398-1.879-4.569.259 2.495-1.377-4.309v1.604l-.875-3.532v1.507l-.615-3.095v1.28l-.746-4.552v1.264l-.324-3.694-.145 1.636-.697-4.05c-.13-.551-.13-1.263-.081-1.976l.243 2.43.146-3.694.437 3.872.178-1.895c-.048.826-.048 2.332.422 3.936.599 2.122.486 4.925.486 5.168l.145-4.86 1.102 6.982-.275-4.633c.064.599.291 1.555.891 2.786.972 2.009 1.004 4.504 1.004 4.877l.162-4.326 1.345 6.691-.616-4.52c.13.324.405.81.94 1.539 1.231 1.669 1.571 4.617 1.652 4.909l-.664-4.796 2.414 6.513-1.296-5.184c.081.227.469.988 2.219 2.819 1.669 1.765 2.236 5.2 2.398 5.832l-.681-4.828 2.527 6.188-1.182-4.681c.097.356.389 1.036 1.263 1.944 1.134 1.182 1.62 4.033 1.701 4.503l-.615-4.325 1.539 3.564-.324-2.722 1.069 3.208c.016-.373.194-.826.794-1.231 1.118-.746 1.539-1.183 1.685-1.361l-.713 1.263c.259-.405 1.101-1.539 2.624-1.976 1.296-.373 1.863-.697 2.09-.859l-1.944 1.782 4.374-2.624-2.09 1.733c.324-.226 1.685-1.215 3.337-1.555 1.523-.308 2.317-.729 2.56-.875l-2.138 1.475 4.05-1.588-1.88 1.102c.308-.146 1.394-.584 2.366-.389 1.166.21 2.851 1.523 2.851 1.523l-1.458-1.718 3.191 2.609-1.053-1.329c.227.243 1.329 1.248 3.224 1.134 2.041-.097 4.471-1.182 4.666-1.263l-2.479 1.474 6.674-3.58-1.247 1.393c.113-.097 1.15-.988 2.867-1.021 1.718-.048 3.467.697 3.662.778l-1.944-1.296 3.985 1.879-1.879-1.75c.226.195 1.328 1.053 3.726 1.831 2.575.842 3.126 1.895 3.191 2.025l-.518-1.879 1.749 3.515c-.048-.21-.583-2.414.438-3.159 1.004-.745 1.296-1.247 1.344-1.312l-.518 2.236 1.96-3.386-.632 3.191 2.301-5.281.016 2.074 1.361-4.099.162 2.3 1.425-5.394.421 1.928 1.134-4.569-.421 3.597 1.653-6.254.291 2.803s-.081-2.333 1.118-5.978l.324 2.608.68-4.6c.211-1.005.357-2.139.454-2.997.081.421.113.907.13 1.409v.34zm-28.561 42.428c.065.043.13.081.194.113l.924 1.296-1.312-.437 1.312 1.636-1.539-.891.794 1.539-2.025-1.215.745.956-1.037-.518 1.037 1.101-2.155-.405 1.118.762-1.944-.681.518 1.62-1.571-1.263c-.049-.13.373 1.409.373 1.409l-1.701-1.669.615 1.313-1.442-1.005.486 1.215-1.328-.696-.275 1.458-.341-1.329-.372 1.636-.502-1.312-.713 1.312.178-1.587-.437 1.053-.26-1.183-.712 1.312v-1.053l-.681 1.458.373-1.49-1.134 1.49.178-1.101-2.074 1.101 1.053-.842-2.802.437 1.361-.777h-1.588l1.004-.664c-.097.048-.615.291-1.668.048-1.086-.259-1.766.519-1.847.6l.859-1.961-1.118 1.313.308-1.62-1.053 1.393.615-1.669-.972.972.713-1.766-1.571.891.777-1.328.859-.551-.697.713 1.685-1.069c.405-.276.648-.551.713-.632l-.632 1.021 1.166-1.183-.307.632s.842-.956 1.36-2.041l.049.307-.016 1.75 1.004-1.361-.259 2.058.826-1.426.049 1.879.356-1.28 1.118 1.588v-1.636l1.312 1.571c-.032-.129-.275-1.393-.194-1.523.065-.129.664 1.588.664 1.588l.648-1.636.049 1.636 1.134-1.539v1.102l.826-1.377-.243 1.846.956-1.49.453 1.49.308-1.976.794 1.361-.049-1.717 1.28 2.041-.097-1.636 1.409.874-.745-1.393 1.588.875-.794-.875s1.668 1.134 1.895 1.134c.195 0-2.106-1.911-2.381-2.138.178.097 1.069.534 2.608.194l.13.357v-1.086l.129.535c.016.032.016.081.033.129l.097.308.275.664c.065.098.114.211.178.308v-.713s.146.713 1.102 1.345z"/><path d="M168.154 150.055a3.28 3.28 0 0 0 1.475.341c-.081.405-.292.615-.292.615l-1.183-.956zm.503-.291c-.081-.243-.211-.47-.324-.632.226.243.664.632 1.296.761a1.63 1.63 0 0 1 .016.389c-.421-.097-.907-.259-.988-.518z"/></g></svg>