<svg width="50" height="24" viewBox="0 0 50 24" fill="none" xmlns="http://www.w3.org/2000/svg">
<path d="M6.77532 21.6749C6.62247 21.6248 6.49031 21.5803 6.38235 21.5435V15.9428C8.43431 15.8297 9.71536 15.028 10.9152 14.2771L10.927 14.2697C12.2027 13.4714 13.386 12.7354 15.4412 12.7354C16.7018 12.7354 18.6512 12.9332 20.2656 13.6031C21.878 14.2721 23.0294 15.3465 23.0294 17.0669C23.0294 18.8084 21.7556 20.2865 19.7966 21.3591C17.8532 22.4233 15.3631 23.0088 13.2353 23.0088C11.8423 23.0088 10.0583 22.622 8.59294 22.2213C7.86659 22.0227 7.23006 21.8239 6.77532 21.6749ZM32.8529 8.52796V2.92731C32.9609 2.89045 33.0931 2.84601 33.2459 2.79591C33.7006 2.64686 34.3372 2.4481 35.0635 2.24947C36.5289 1.84875 38.3129 1.46193 39.7059 1.46193C41.8337 1.46193 44.3238 2.04746 46.2672 3.11164C48.2262 4.18429 49.5 5.6624 49.5 7.4039C49.5 9.1243 48.3486 10.1986 46.7362 10.8677C45.1218 11.5375 43.1724 11.7354 41.9118 11.7354C39.8566 11.7354 38.6733 10.9994 37.3976 10.201L37.3858 10.1937C36.186 9.4428 34.9049 8.64111 32.8529 8.52796ZM29.4118 8.5144C28.1075 8.5144 26.9706 7.33758 26.9706 5.79341C26.9706 4.24924 28.1075 3.07242 29.4118 3.07242H30.3824V8.5144H29.4118ZM2.94118 21.3983C1.63687 21.3983 0.5 20.2215 0.5 18.6774C0.5 17.1332 1.63687 15.9564 2.94118 15.9564H3.91176V21.3983H2.94118Z" stroke="#B8B8B8"/>
</svg>
