<svg xmlns="http://www.w3.org/2000/svg" width="91" height="29" fill="none" xmlns:v="https://vecta.io/nano"><g clip-path="url(#A)"><circle cx="54.547" cy="8.597" r="1.59" transform="rotate(315 54.547 8.597)" fill="#8451f0"/></g><g fill="#292b35"><path d="M44.27 7.114l11.825 11.825-2.213 2.213L42.058 9.326z"/><path d="M42.058 18.903l9.685-9.685 2.213 2.213-9.685 9.685zm-26.045 2.106l3.818-13.347h-3.878l-1.999 8.904-2.279-8.904H9.036l-2.279 8.904-2.019-8.904H.88l3.818 13.347h3.638l2.019-8.364 2.019 8.364h3.638zm3.369-4.842c0 3.142 2.299 5.083 5.277 5.083 1.479 0 3.078-.42 4.038-1.281l-1.299-1.921c-.54.48-1.499.82-2.359.82-1.439 0-2.279-.82-2.459-1.721h6.877v-.66c0-3.282-2.079-5.383-4.938-5.383-3.018 0-5.137 2.261-5.137 5.063zm5.137-2.681c1.419 0 1.919.981 1.999 1.661H22.54c.12-.7.64-1.661 1.979-1.661zm9.532 7.524v-1.12c.8.92 1.779 1.361 2.859 1.361 2.379 0 4.258-1.801 4.258-5.082 0-3.162-1.859-5.062-4.258-5.062-1.059 0-2.099.42-2.859 1.381V7.662h-3.078v13.347h3.078zm0-6.303c.38-.52 1.179-.88 1.839-.88 1.219 0 2.139.9 2.139 2.341 0 1.461-.92 2.361-2.139 2.361-.66 0-1.459-.34-1.839-.86v-2.962zm33.632 6.303V7.662h-3.058v4.822c-.78-.96-1.799-1.381-2.859-1.381-2.419 0-4.278 1.901-4.278 5.063 0 3.282 1.899 5.083 4.278 5.083 1.079 0 2.059-.44 2.859-1.361v1.12h3.058zm-3.058-3.362c-.4.52-1.2.88-1.859.88-1.219 0-2.119-.92-2.119-2.361s.9-2.341 2.119-2.341c.66 0 1.459.34 1.859.86v2.962zm4.674-1.481c0 3.142 2.299 5.083 5.277 5.083 1.479 0 3.078-.42 4.038-1.281l-1.299-1.921c-.54.48-1.499.82-2.359.82-1.439 0-2.279-.82-2.459-1.721h6.877v-.66c0-3.282-2.079-5.383-4.938-5.383-3.019 0-5.137 2.261-5.137 5.063zm5.137-2.681c1.419 0 1.919.981 1.999 1.661h-3.978c.12-.7.64-1.661 1.979-1.661zm12.211 7.524l3.798-9.665h-3.258l-2.199 6.123-2.179-6.123H79.57l3.798 9.665h3.278z"/></g><defs><clipPath id="A"><path fill="#fff" transform="translate(42.069 7.032)" d="M0 0h14.064v14.138H0z"/></clipPath></defs></svg>