<svg xmlns="http://www.w3.org/2000/svg" width="452" height="74" fill="none" xmlns:v="https://vecta.io/nano"><g clip-path="url(#A)"><circle cx="7.607" cy="7.607" r="7.607" transform="matrix(.706759 -.707454 .706759 .707454 258.654 14.1907)" fill="#8451f0"/><g fill="#292b35"><path d="M220.277 7.092l56.536 56.591-10.579 10.589-56.536-56.591z"/><path d="M209.698 63.509l46.304-46.349 10.579 10.589-46.304 46.349zM76.479 73.185L95.57 6.452H76.179l-9.995 44.522L54.79 6.452H41.596L30.202 50.974 20.107 6.452H.816l19.091 66.733h18.191l10.095-41.821 10.095 41.821h18.191zm16.843-24.212c0 15.708 11.494 25.412 26.387 25.412 7.396 0 15.392-2.101 20.19-6.403l-6.497-9.605c-2.699 2.401-7.496 4.102-11.794 4.102-7.197 0-11.395-4.102-12.294-8.604h34.383v-3.302c0-16.408-10.395-26.913-24.688-26.913-15.093 0-25.687 11.306-25.687 25.313zm25.687-13.407c7.097 0 9.595 4.902 9.995 8.304h-19.89c.6-3.502 3.198-8.304 9.895-8.304zm47.662 37.619v-5.603c3.998 4.602 8.895 6.803 14.293 6.803 11.894 0 21.289-9.004 21.289-25.412 0-15.808-9.295-25.313-21.289-25.313-5.298 0-10.495 2.101-14.293 6.903V6.452h-15.393v66.733h15.393zm0-31.516c1.899-2.601 5.897-4.402 9.195-4.402 6.097 0 10.695 4.502 10.695 11.706 0 7.304-4.598 11.806-10.695 11.806-3.298 0-7.296-1.701-9.195-4.302V41.67zm168.157 31.516V6.452h-15.293v24.112c-3.898-4.802-8.995-6.903-14.293-6.903-12.094 0-21.389 9.505-21.389 25.313 0 16.408 9.495 25.412 21.389 25.412 5.398 0 10.295-2.201 14.293-6.803v5.603h15.293zm-15.293-16.808c-1.999 2.601-5.997 4.402-9.295 4.402-6.097 0-10.595-4.602-10.595-11.806s4.498-11.706 10.595-11.706c3.298 0 7.296 1.701 9.295 4.302v14.807zm23.371-7.404c0 15.708 11.494 25.412 26.387 25.412 7.396 0 15.392-2.101 20.19-6.403l-6.497-9.605c-2.698 2.401-7.496 4.102-11.794 4.102-7.196 0-11.394-4.102-12.294-8.604h34.383v-3.302c0-16.408-10.395-26.913-24.688-26.913-15.092 0-25.687 11.306-25.687 25.313zm25.687-13.407c7.097 0 9.596 4.902 9.995 8.304h-19.89c.6-3.502 3.199-8.304 9.895-8.304zm61.055 37.619l18.991-48.324h-16.292l-10.995 30.615-10.894-30.615h-16.192l18.99 48.324h16.392z"/></g></g><defs><clipPath id="A"><path fill="#fff" d="M0 0h452v74H0z"/></clipPath></defs></svg>