<svg width="270" height="294" viewBox="0 0 270 294" fill="none" xmlns="http://www.w3.org/2000/svg">
<g opacity="0.1">
<path fill-rule="evenodd" clip-rule="evenodd" d="M254.55 259.476L270 282.705V283.47L254.589 260.298L233.229 300H232.749L254.55 259.476Z" fill="#8A8EC0"/>
<path fill-rule="evenodd" clip-rule="evenodd" d="M233.229 300H232.749L253.932 260.624L200.921 300H200.211L255.206 259.15L233.229 300Z" fill="#8A8EC0"/>
<path fill-rule="evenodd" clip-rule="evenodd" d="M200.07 270.875L255.463 259.487L200.922 300H200.211L253.675 260.287L200.343 271.251L183.985 300H183.497L200.022 270.959L200.07 270.875Z" fill="#8A8EC0"/>
<path fill-rule="evenodd" clip-rule="evenodd" d="M183.985 300H183.497L199.589 271.72L156.314 300H155.54L200.824 270.407L183.985 300Z" fill="#8A8EC0"/>
<path fill-rule="evenodd" clip-rule="evenodd" d="M200.7 270.994L156.315 300H155.54L199.712 271.133L158.73 258.532L132.464 300H131.962L158.545 258.032L200.7 270.994Z" fill="#8A8EC0"/>
<path fill-rule="evenodd" clip-rule="evenodd" d="M142.514 262.908L159.12 257.916L132.464 300H131.962L158.155 258.649L142.825 263.257L127.048 300H126.587L142.475 262.999L142.514 262.908Z" fill="#8A8EC0"/>
<path fill-rule="evenodd" clip-rule="evenodd" d="M102.358 300H101.884L83.6367 263.835L80.4978 300H80.0718L83.343 262.314L102.358 300Z" fill="#8A8EC0"/>
<path fill-rule="evenodd" clip-rule="evenodd" d="M142.991 262.871L127.049 300H126.587L142.348 263.294L83.8339 263.286L102.358 300H101.884L83.1458 262.863L142.991 262.871Z" fill="#8A8EC0"/>
<path fill-rule="evenodd" clip-rule="evenodd" d="M80.4972 300H80.0723L83.226 263.666L49.1339 300H48.5526L83.7537 262.484L80.4972 300Z" fill="#8A8EC0"/>
<path fill-rule="evenodd" clip-rule="evenodd" d="M30.5373 293.291L84.6192 262.18L49.1333 300H48.5525L82.3604 263.969L30.896 293.573L28.9949 300H28.5531L30.5135 293.372L30.5373 293.291Z" fill="#8A8EC0"/>
<mask id="mask0_129_6" style="mask-type:luminance" maskUnits="userSpaceOnUse" x="-30" y="0" width="61" height="300">
<path d="M-29.9661 0H30.9961V300H-29.9661V0Z" fill="black"/>
</mask>
<g mask="url(#mask0_129_6)">
<path fill-rule="evenodd" clip-rule="evenodd" d="M-25.817 290.01L30.7288 293.221L30.996 293.236L28.9949 300H28.5525L30.4378 293.629L-24.6537 290.5L-14.2774 300H-14.9045L-25.378 290.411L-25.817 290.01Z" fill="#8A8EC0"/>
</g>
<path fill-rule="evenodd" clip-rule="evenodd" d="M96.6136 173.7L120.208 214.596L135.937 167.408L96.6136 173.7ZM96.0933 173.646L95.9396 173.379L136.56 166.88L120.312 215.624L96.0933 173.646Z" fill="#8A8EC0"/>
<path fill-rule="evenodd" clip-rule="evenodd" d="M136.372 167.442L120.775 214.234L155.089 176.802L136.372 167.442ZM136.124 166.845L155.53 176.548L155.781 176.673L119.745 215.986L136.124 166.845Z" fill="#8A8EC0"/>
<path fill-rule="evenodd" clip-rule="evenodd" d="M72.6622 208.55L119.861 214.843L96.2616 173.937L72.6622 208.55ZM72.2655 208.925L71.9249 208.879L96.2915 173.142L120.658 215.377L72.2655 208.925Z" fill="#8A8EC0"/>
<path fill-rule="evenodd" clip-rule="evenodd" d="M120.679 214.967L166.345 222.841L155.323 177.174L120.679 214.967ZM120.224 215.319L119.841 215.253L155.279 176.594L155.547 176.301L166.908 223.368L120.224 215.319Z" fill="#8A8EC0"/>
<path fill-rule="evenodd" clip-rule="evenodd" d="M72.561 208.964L83.6 262.579L119.869 215.272L72.561 208.964ZM72.026 208.465L120.651 214.949L83.6543 263.205L83.3718 263.573L72.026 208.465Z" fill="#8A8EC0"/>
<path fill-rule="evenodd" clip-rule="evenodd" d="M112.317 119.754L96.5746 173.277L135.93 166.981L112.317 119.754ZM112.214 118.602L136.567 167.307L95.9785 173.802L112.214 118.602Z" fill="#8A8EC0"/>
<path fill-rule="evenodd" clip-rule="evenodd" d="M136.795 167.18L155.41 176.488L191.088 148.566L136.795 167.18ZM135.702 167.107L193.33 147.349L155.566 176.904L155.46 176.987L135.702 167.107Z" fill="#8A8EC0"/>
<path fill-rule="evenodd" clip-rule="evenodd" d="M96.4887 122.55V172.068L111.963 119.454L96.4887 122.55ZM96.065 122.202L112.568 118.902L96.065 175.011V122.202Z" fill="#8A8EC0"/>
<path fill-rule="evenodd" clip-rule="evenodd" d="M24.9842 125.757L96.065 173.144V122.597L24.9842 125.757ZM23.6712 125.39L96.2673 122.164L96.4887 122.154V173.936L23.6712 125.39Z" fill="#8A8EC0"/>
<path fill-rule="evenodd" clip-rule="evenodd" d="M120.623 215.388L142.668 262.625L166.286 223.26L120.623 215.388ZM119.897 214.833L166.968 222.948L142.826 263.185L142.621 263.527L119.897 214.833Z" fill="#8A8EC0"/>
<path fill-rule="evenodd" clip-rule="evenodd" d="M166.127 224.35L143.107 262.716L158.454 258.112L166.127 224.35ZM167.127 221.859L158.812 258.447L142.181 263.436L167.127 221.859Z" fill="#8A8EC0"/>
<path fill-rule="evenodd" clip-rule="evenodd" d="M120.215 215.516L83.9153 262.864H142.311L120.215 215.516ZM120.305 214.704L142.977 263.288H83.0565L120.305 214.704Z" fill="#8A8EC0"/>
<path fill-rule="evenodd" clip-rule="evenodd" d="M155.725 177.036L166.773 222.804L225.167 195.975L155.725 177.036ZM155.145 176.439L226.404 195.873L166.481 223.405L155.145 176.439Z" fill="#8A8EC0"/>
<path fill-rule="evenodd" clip-rule="evenodd" d="M166.784 223.369L158.931 257.923L210.761 235.934L166.784 223.369ZM166.47 222.839L212.03 235.856L158.334 258.637L166.47 222.839Z" fill="#8A8EC0"/>
<path fill-rule="evenodd" clip-rule="evenodd" d="M112.692 119.556L136.355 166.884L191.57 147.953L112.692 119.556ZM111.84 118.799L192.281 147.758L192.848 147.963L136.142 167.405L111.84 118.799Z" fill="#8A8EC0"/>
<path fill-rule="evenodd" clip-rule="evenodd" d="M18.687 183.253L72.2203 208.446L95.8378 173.807L18.687 183.253ZM17.1774 183.012L96.7153 173.272L72.4684 208.834L72.3672 208.983L17.1774 183.012Z" fill="#8A8EC0"/>
<path fill-rule="evenodd" clip-rule="evenodd" d="M34.3158 242.227L83.1972 262.725L72.1594 209.114L34.3158 242.227ZM33.5255 242.355L72.4277 208.316L83.7746 263.427L33.5255 242.355Z" fill="#8A8EC0"/>
<path fill-rule="evenodd" clip-rule="evenodd" d="M18.2559 183.519L34.0367 241.908L71.9102 208.769L18.2559 183.519ZM17.7271 183.188L17.6085 182.746L72.3842 208.523L72.6768 208.66L33.8051 242.674L17.7271 183.188Z" fill="#8A8EC0"/>
<path fill-rule="evenodd" clip-rule="evenodd" d="M167.236 223.058L211.263 235.637L225.415 196.327L167.236 223.058ZM166.019 223.151L226.156 195.52L211.595 235.967L211.528 236.154L166.019 223.151Z" fill="#8A8EC0"/>
<path fill-rule="evenodd" clip-rule="evenodd" d="M155.898 176.644L225.276 195.565L192.163 148.262L155.898 176.644ZM154.972 176.831L192.255 147.653L226.295 196.282L154.972 176.831Z" fill="#8A8EC0"/>
<path fill-rule="evenodd" clip-rule="evenodd" d="M121.338 74.2814L96.6667 122.082L112.086 118.998L121.338 74.2814ZM122.379 71.3401L112.445 119.358L95.8865 122.67L122.379 71.3401Z" fill="#8A8EC0"/>
<path fill-rule="evenodd" clip-rule="evenodd" d="M112.702 119.11L191.951 147.64L180.856 66.8056L112.702 119.11ZM111.829 119.246L181.177 66.0254L192.467 148.275L111.829 119.246Z" fill="#8A8EC0"/>
<path fill-rule="evenodd" clip-rule="evenodd" d="M62.6989 93.8734L24.9463 125.334L95.7322 122.188L62.6989 93.8734ZM62.565 93.4333L62.7023 93.3186L96.8215 122.564L23.709 125.813L62.565 93.4333Z" fill="#8A8EC0"/>
<path fill-rule="evenodd" clip-rule="evenodd" d="M24.5 125.943L18.1723 182.89L95.6836 173.399L24.5 125.943ZM24.117 125.55L24.1554 125.204L96.8701 173.68L17.6921 183.375L24.117 125.55Z" fill="#8A8EC0"/>
<path fill-rule="evenodd" clip-rule="evenodd" d="M63.117 93.6739L96.2113 122.041L121.426 73.1875L63.117 93.6739ZM62.2842 93.518L121.788 72.6106L122.292 72.4338L96.465 122.473L96.3424 122.711L62.2842 93.518Z" fill="#8A8EC0"/>
<path fill-rule="evenodd" clip-rule="evenodd" d="M159.25 258.248L200.065 270.806L211.054 236.271L159.25 258.248ZM158.015 258.312L211.313 235.701L211.737 235.52L200.342 271.335L158.015 258.312Z" fill="#8A8EC0"/>
<path fill-rule="evenodd" clip-rule="evenodd" d="M211.519 236.207L200.515 270.79L253.963 259.786L211.519 236.207ZM211.272 235.584L255.168 259.971L199.892 271.351L211.272 235.584Z" fill="#8A8EC0"/>
<path fill-rule="evenodd" clip-rule="evenodd" d="M181.346 67.2548L192.343 147.375L214.337 114.384L181.346 67.2548ZM180.688 65.5757L214.85 114.379L192.075 148.54L180.688 65.5757Z" fill="#8A8EC0"/>
<path fill-rule="evenodd" clip-rule="evenodd" d="M192.64 148.204L225.776 195.541L252.6 152.938L192.64 148.204ZM191.778 147.711L253.332 152.571L225.795 196.307L191.778 147.711Z" fill="#8A8EC0"/>
<path fill-rule="evenodd" clip-rule="evenodd" d="M34.1135 242.602L30.9593 293.075L83.009 263.106L34.1135 242.602ZM33.7096 242.278L33.7277 241.981L83.9627 263.046L30.8294 293.638L30.4875 293.835L33.7096 242.278Z" fill="#8A8EC0"/>
<path fill-rule="evenodd" clip-rule="evenodd" d="M75.6226 55.4994L63.0384 93.2531L121.241 72.8028L75.6226 55.4994ZM75.2904 55.1559L75.3599 54.9469L122.476 72.8186L62.3627 93.9396L75.2904 55.1559Z" fill="#8A8EC0"/>
<path fill-rule="evenodd" clip-rule="evenodd" d="M21.3655 100.17L24.4898 125.163L61.9797 93.9215L21.3655 100.17ZM20.8943 99.813L63.4215 93.2706L24.1655 125.985L20.8943 99.813Z" fill="#8A8EC0"/>
<path fill-rule="evenodd" clip-rule="evenodd" d="M20.9774 100.48L-5.49661 130.068L24.0921 125.396L20.9774 100.48ZM20.9723 99.8503L21.2819 99.5034L24.5633 125.751L-6.60565 130.672L20.9723 99.8503Z" fill="#8A8EC0"/>
<mask id="mask1_129_6" style="mask-type:luminance" maskUnits="userSpaceOnUse" x="-30" y="66" width="212" height="177">
<path d="M-29.9661 66.1237H181.745V242.591H-29.9661V66.1237Z" fill="black"/>
</mask>
<g mask="url(#mask1_129_6)">
<path fill-rule="evenodd" clip-rule="evenodd" d="M-10.526 162.319L17.7616 182.748L24.048 126.172L-10.526 162.319ZM-11.1684 162.377L24.6073 124.975L18.1028 183.517L-11.1684 162.377Z" fill="#8A8EC0"/>
</g>
<mask id="mask2_129_6" style="mask-type:luminance" maskUnits="userSpaceOnUse" x="-30" y="66" width="212" height="177">
<path d="M-29.9661 66.1237H181.745V242.591H-29.9661V66.1237Z" fill="black"/>
</mask>
<g mask="url(#mask2_129_6)">
<path fill-rule="evenodd" clip-rule="evenodd" d="M18.3429 183.168L-30 206.72V206.249L17.5209 183.097L-10.7915 162.649L-30 191.919V191.146L-10.9028 162.046L18.3429 183.168Z" fill="#8A8EC0"/>
</g>
<mask id="mask3_129_6" style="mask-type:luminance" maskUnits="userSpaceOnUse" x="-30" y="66" width="212" height="177">
<path d="M-29.9661 66.1237H181.745V242.591H-29.9661V66.1237Z" fill="black"/>
</mask>
<g mask="url(#mask3_129_6)">
<path fill-rule="evenodd" clip-rule="evenodd" d="M122.035 73.0045L112.588 118.663L180.289 66.7073L122.035 73.0045ZM121.682 72.6169L181.745 66.1237L111.943 119.693L121.682 72.6169Z" fill="#8A8EC0"/>
</g>
<mask id="mask4_129_6" style="mask-type:luminance" maskUnits="userSpaceOnUse" x="-30" y="66" width="212" height="177">
<path d="M-29.9661 66.1237H181.745V242.591H-29.9661V66.1237Z" fill="black"/>
</mask>
<g mask="url(#mask4_129_6)">
<path fill-rule="evenodd" clip-rule="evenodd" d="M18.0571 182.782L34.1254 242.236L34.2209 242.591L-30 225.464V225.026L33.6203 241.992L17.8068 183.482L-30 217.63V217.11L17.809 182.96L18.0571 182.782Z" fill="#8A8EC0"/>
</g>
<path fill-rule="evenodd" clip-rule="evenodd" d="M-5.86439 130.555L-10.539 161.719L23.7407 125.881L-5.86439 130.555ZM-6.23727 130.185L24.9147 125.267L-10.6943 162.494L-11.1559 162.977L-6.23727 130.185Z" fill="#8A8EC0"/>
<path fill-rule="evenodd" clip-rule="evenodd" d="M192.586 147.775L252.41 152.498L214.626 114.714L192.586 147.775ZM191.833 148.14L214.56 114.049L253.523 153.011L191.833 148.14Z" fill="#8A8EC0"/>
<path fill-rule="evenodd" clip-rule="evenodd" d="M211.681 235.728L249.386 242.012L225.82 196.453L211.681 235.728ZM211.36 236.105L211.11 236.063L225.751 195.396L250.151 242.57L211.36 236.105Z" fill="#8A8EC0"/>
<path fill-rule="evenodd" clip-rule="evenodd" d="M20.1243 31.7249L62.6339 93.1271L75.2288 55.3412L20.1243 31.7249ZM18.9379 30.7554L75.5746 55.0283L75.7542 55.1051L62.7672 94.065L18.9379 30.7554Z" fill="#8A8EC0"/>
<path fill-rule="evenodd" clip-rule="evenodd" d="M171.768 22.2446L181.162 66.0814L204.646 51.9904L171.768 22.2446ZM171.079 21.0492L205.142 51.8684L205.354 52.0599L180.872 66.7492L171.079 21.0492Z" fill="#8A8EC0"/>
<path fill-rule="evenodd" clip-rule="evenodd" d="M181.403 66.5978L214.095 113.301L201.641 65.0413L181.403 66.5978ZM180.63 66.2329L201.963 64.5916L215.091 115.462L180.63 66.2329Z" fill="#8A8EC0"/>
<path fill-rule="evenodd" clip-rule="evenodd" d="M204.671 52.4706L181.895 66.1356L201.634 64.617L204.671 52.4706ZM205.33 51.5802L201.971 65.0158L180.138 66.6955L205.33 51.5802Z" fill="#8A8EC0"/>
<path fill-rule="evenodd" clip-rule="evenodd" d="M212.571 236.306L254.228 259.45L249.599 242.477L212.571 236.306ZM210.22 235.485L249.803 242.082L249.937 242.105L254.902 260.308L210.22 235.485Z" fill="#8A8EC0"/>
<mask id="mask5_129_6" style="mask-type:luminance" maskUnits="userSpaceOnUse" x="-30" y="21" width="212" height="270">
<path d="M-29.9661 21.2141H181.273V290.645H-29.9661V21.2141Z" fill="black"/>
</mask>
<g mask="url(#mask5_129_6)">
<path fill-rule="evenodd" clip-rule="evenodd" d="M171.3 22.0796L122.419 72.5373L180.76 66.2299L171.3 22.0796ZM171.547 21.2141L181.273 66.6006L121.299 73.0842L171.547 21.2141Z" fill="#8A8EC0"/>
</g>
<mask id="mask6_129_6" style="mask-type:luminance" maskUnits="userSpaceOnUse" x="-30" y="21" width="212" height="270">
<path d="M-29.9661 21.2141H181.273V290.645H-29.9661V21.2141Z" fill="black"/>
</mask>
<g mask="url(#mask6_129_6)">
<path fill-rule="evenodd" clip-rule="evenodd" d="M34.3774 242.194L-25.3791 290.645L-30 266.385V264.12L-25.0955 289.869L33.4638 242.389L-30 225.464V225.026L33.9751 242.086L34.3774 242.194Z" fill="#8A8EC0"/>
</g>
<mask id="mask7_129_6" style="mask-type:luminance" maskUnits="userSpaceOnUse" x="-30" y="21" width="212" height="270">
<path d="M-29.9661 21.2141H181.273V290.645H-29.9661V21.2141Z" fill="black"/>
</mask>
<g mask="url(#mask7_129_6)">
<path fill-rule="evenodd" clip-rule="evenodd" d="M75.935 55.1651L121.6 72.486L115.302 26.8216L75.935 55.1651ZM75.048 55.2815L115.625 26.0662L122.118 73.1357L75.048 55.2815Z" fill="#8A8EC0"/>
</g>
<mask id="mask8_129_6" style="mask-type:luminance" maskUnits="userSpaceOnUse" x="-30" y="21" width="212" height="270">
<path d="M-29.9661 21.2141H181.273V290.645H-29.9661V21.2141Z" fill="black"/>
</mask>
<g mask="url(#mask8_129_6)">
<path fill-rule="evenodd" clip-rule="evenodd" d="M18.0554 183.305L-30 217.63V217.11L15.748 184.432L-30 206.72V206.249L17.8395 182.942L18.0554 183.305Z" fill="#8A8EC0"/>
</g>
<path fill-rule="evenodd" clip-rule="evenodd" d="M-24.6785 290.076L30.5254 293.231L33.6791 242.76L-24.6785 290.076ZM-25.2497 290.468L-25.7966 290.437L34.1622 241.823L30.9215 293.678L-25.2497 290.468Z" fill="#8A8EC0"/>
<mask id="mask9_129_6" style="mask-type:luminance" maskUnits="userSpaceOnUse" x="-30" y="21" width="202" height="80">
<path d="M-29.9661 21.387H171.97V100.395H-29.9661V21.387Z" fill="black"/>
</mask>
<g mask="url(#mask9_129_6)">
<path fill-rule="evenodd" clip-rule="evenodd" d="M115.704 26.6356L122.009 72.3508L170.877 21.9062L115.704 26.6356ZM115.254 26.4723L115.223 26.2514L171.97 21.387L121.708 73.2706L115.254 26.4723Z" fill="#8A8EC0"/>
</g>
<mask id="mask10_129_6" style="mask-type:luminance" maskUnits="userSpaceOnUse" x="-30" y="21" width="202" height="80">
<path d="M-29.9661 21.387H171.97V100.395H-29.9661V21.387Z" fill="black"/>
</mask>
<g mask="url(#mask10_129_6)">
<path fill-rule="evenodd" clip-rule="evenodd" d="M-2.78136 43.6599L21.5333 100.395L-30 78.309V77.848L20.7266 99.5881L-2.92486 44.4023L-30 71.478V70.878L-3.00339 43.8814L-2.78136 43.6599Z" fill="#8A8EC0"/>
</g>
<path fill-rule="evenodd" clip-rule="evenodd" d="M19.7593 31.9419L21.3362 99.7453L62.3339 93.4385L19.7593 31.9419ZM19.3028 30.5385L62.8751 93.4758L63.0678 93.7538L20.9237 100.237L19.3028 30.5385Z" fill="#8A8EC0"/>
<mask id="mask11_129_6" style="mask-type:luminance" maskUnits="userSpaceOnUse" x="-30" y="30" width="52" height="101">
<path d="M-29.9661 30.8796H21.4848V130.738H-29.9661V30.8796Z" fill="black"/>
</mask>
<g mask="url(#mask11_129_6)">
<path fill-rule="evenodd" clip-rule="evenodd" d="M-2.58417 44.1214L20.8927 98.8999L19.3277 31.6005L-2.58417 44.1214ZM-3.12259 43.9406L19.7345 30.8796L21.3672 101.083L-3.12259 43.9406Z" fill="#8A8EC0"/>
</g>
<mask id="mask12_129_6" style="mask-type:luminance" maskUnits="userSpaceOnUse" x="-30" y="30" width="52" height="101">
<path d="M-29.9661 30.8796H21.4848V130.738H-29.9661V30.8796Z" fill="black"/>
</mask>
<g mask="url(#mask12_129_6)">
<path fill-rule="evenodd" clip-rule="evenodd" d="M21.4847 99.9129L-5.89322 130.511L-6.09548 130.738L-30 85.5852V84.6796L-6.00621 130.002L20.7751 100.07L-30 78.309V77.8485L21.213 99.7965L21.4847 99.9129Z" fill="#8A8EC0"/>
</g>
<path fill-rule="evenodd" clip-rule="evenodd" d="M226.081 195.852L255.458 213.178L252.785 153.44L226.081 195.852ZM225.49 195.995L253.147 152.068L255.916 213.941L225.49 195.995Z" fill="#8A8EC0"/>
<path fill-rule="evenodd" clip-rule="evenodd" d="M226.312 196.48L249.682 241.662L255.449 213.664L226.312 196.48ZM225.259 195.368L255.795 213.377L255.925 213.454L249.976 242.334L249.845 242.9L225.259 195.368Z" fill="#8A8EC0"/>
<path fill-rule="evenodd" clip-rule="evenodd" d="M255.793 214.099L250.209 241.201L261.743 223.025L255.793 214.099ZM255.582 213.02L262.249 223.02L249.328 243.381L255.582 213.02Z" fill="#8A8EC0"/>
<path fill-rule="evenodd" clip-rule="evenodd" d="M249.997 242.326L254.534 258.96L261.563 224.101L249.997 242.326ZM249.54 242.257L262.43 221.944L254.596 260.797L249.54 242.257Z" fill="#8A8EC0"/>
<path fill-rule="evenodd" clip-rule="evenodd" d="M262.002 221.92L270 264.023V266.294L261.99 224.125L254.79 259.835L270 282.703V283.468L254.34 259.923L262.002 221.92Z" fill="#8A8EC0"/>
<path fill-rule="evenodd" clip-rule="evenodd" d="M252.742 152.475L270 157.115V157.554L253.191 153.034L255.87 212.895L270 191.372V192.145L255.505 214.223L252.742 152.475Z" fill="#8A8EC0"/>
<path fill-rule="evenodd" clip-rule="evenodd" d="M270 143.214V143.697L253.532 152.687L270 157.115V157.554L252.401 152.821L270 143.214Z" fill="#8A8EC0"/>
<path fill-rule="evenodd" clip-rule="evenodd" d="M265.088 75.3768L270 84.6497V85.5548L265.307 76.6955L253.244 152.362L270 143.214V143.697L252.689 153.147L265.088 75.3768Z" fill="#8A8EC0"/>
<path fill-rule="evenodd" clip-rule="evenodd" d="M214.915 114.403L252.823 152.311L264.906 76.5232L214.915 114.403ZM214.272 114.359L265.49 75.5486L253.11 153.198L214.272 114.359Z" fill="#8A8EC0"/>
<path fill-rule="evenodd" clip-rule="evenodd" d="M202.09 65.0825L214.719 114.02L264.683 76.1599L202.09 65.0825ZM201.515 64.5503L265.712 75.9119L214.721 114.55L214.468 114.742L201.515 64.5503Z" fill="#8A8EC0"/>
<path fill-rule="evenodd" clip-rule="evenodd" d="M200.706 64.8379L270 49.7881V50.2215L202.898 64.7955L265.126 75.8079L270 70.9339V71.5333L265.27 76.2639L200.706 64.8379Z" fill="#8A8EC0"/>
<path fill-rule="evenodd" clip-rule="evenodd" d="M201.514 65.0961L204.831 51.8271L270 46.2311V46.6565L205.169 52.2232L202.09 64.5367L270 49.7881V50.2215L201.847 65.0237L201.514 65.0961Z" fill="#8A8EC0"/>
<path fill-rule="evenodd" clip-rule="evenodd" d="M263.437 0H264.077L205.62 51.7593L270 46.2311V46.6565L204.38 52.2915L263.437 0Z" fill="#8A8EC0"/>
<path fill-rule="evenodd" clip-rule="evenodd" d="M232.749 0H233.229L205.75 51.078L263.437 0H264.077L204.25 52.9729L232.749 0Z" fill="#8A8EC0"/>
<path fill-rule="evenodd" clip-rule="evenodd" d="M171.09 21.6311L200.211 0H200.921L171.757 21.6627L204.942 51.687L232.749 0H233.23L205.059 52.3638L171.09 21.6311Z" fill="#8A8EC0"/>
<path fill-rule="evenodd" clip-rule="evenodd" d="M183.497 0H183.985L172.106 20.8763L200.211 0H200.921L170.742 22.4175L183.497 0Z" fill="#8A8EC0"/>
<path fill-rule="evenodd" clip-rule="evenodd" d="M171.553 21.8486L114.643 26.7266L155.54 0H156.315L116.284 26.1605L171.295 21.4452L183.497 0H183.985L171.608 21.7514L171.553 21.8486Z" fill="#8A8EC0"/>
<path fill-rule="evenodd" clip-rule="evenodd" d="M131.962 0H132.464L116.165 25.7322L155.54 0H156.315L114.762 27.1548L131.962 0Z" fill="#8A8EC0"/>
<path fill-rule="evenodd" clip-rule="evenodd" d="M115.269 26.3599L126.587 0H127.048L116.707 24.0842L131.962 0H132.464L115.642 26.5571L115.269 26.3599Z" fill="#8A8EC0"/>
<path fill-rule="evenodd" clip-rule="evenodd" d="M19.8887 31.2797L-2.95649 44.3345L-21.4085 0H-20.9497L-2.75028 43.7277L19.1734 31.2006L-14.9051 0H-14.2774L19.674 31.0842L19.8887 31.2797Z" fill="#8A8EC0"/>
<path fill-rule="evenodd" clip-rule="evenodd" d="M115.734 26.5096L75.2401 55.665L80.0718 0H80.4972L75.7424 54.7814L115.193 26.3774L101.884 0H102.358L115.653 26.348L115.734 26.5096Z" fill="#8A8EC0"/>
<path fill-rule="evenodd" clip-rule="evenodd" d="M101.884 0H102.358L115.448 25.9424L126.588 0H127.048L115.479 26.9446L101.884 0Z" fill="#8A8EC0"/>
<path fill-rule="evenodd" clip-rule="evenodd" d="M19.1695 31.3158L48.5525 0H49.1333L19.8927 31.1644L75.3057 54.913L80.0723 0H80.4972L75.6774 55.5333L19.1695 31.3158Z" fill="#8A8EC0"/>
<path fill-rule="evenodd" clip-rule="evenodd" d="M19.0746 32.0362L28.5531 0H28.9949L19.987 30.4441L48.5526 0H49.1333L19.6853 31.3847L19.0746 32.0362Z" fill="#8A8EC0"/>
<path fill-rule="evenodd" clip-rule="evenodd" d="M-14.9045 0H-14.2774L19.4237 30.8548L28.5526 0H28.9949L19.6379 31.6254L-14.9045 0Z" fill="#8A8EC0"/>
<path fill-rule="evenodd" clip-rule="evenodd" d="M270 191.146V191.918L256.176 212.983L270 206.249V206.72L254.977 214.04L270 191.146Z" fill="#8A8EC0"/>
<path fill-rule="evenodd" clip-rule="evenodd" d="M270 217.11V217.63L262.46 223.015L270 225.026V225.464L261.483 223.193L270 217.11Z" fill="#8A8EC0"/>
<path fill-rule="evenodd" clip-rule="evenodd" d="M270 225.025V225.465L262.243 223.396L270 264.12V266.384L261.701 222.812L270 225.025Z" fill="#8A8EC0"/>
<path fill-rule="evenodd" clip-rule="evenodd" d="M261.917 223.404L255.266 213.427L270 206.249V206.72L255.888 213.596L262.027 222.805L270 217.11V217.63L262.095 223.276L261.917 223.404Z" fill="#8A8EC0"/>
<path fill-rule="evenodd" clip-rule="evenodd" d="M270 70.8785V71.478L265.541 75.9373L270 77.848V78.309L264.798 76.0802L270 70.8785Z" fill="#8A8EC0"/>
<path fill-rule="evenodd" clip-rule="evenodd" d="M270 77.8486V78.309L265.637 76.4396L270 84.6797V85.5853L264.702 75.578L270 77.8486Z" fill="#8A8EC0"/>
<path fill-rule="evenodd" clip-rule="evenodd" d="M36.3554 242.46C36.3554 243.737 35.3203 244.773 34.0429 244.773C32.7661 244.773 31.7311 243.737 31.7311 242.46C31.7311 241.184 32.7661 240.149 34.0429 240.149C35.3203 240.149 36.3554 241.184 36.3554 242.46Z" fill="#8A8EC0"/>
<path fill-rule="evenodd" clip-rule="evenodd" d="M33.2718 293.075C33.2718 294.351 32.2367 295.386 30.9593 295.386C29.6825 295.386 28.6475 294.351 28.6475 293.075C28.6475 291.798 29.6825 290.763 30.9593 290.763C32.2367 290.763 33.2718 291.798 33.2718 293.075Z" fill="#8A8EC0"/>
<path fill-rule="evenodd" clip-rule="evenodd" d="M85.9486 263.27C85.9486 264.547 84.9135 265.582 83.6367 265.582C82.3599 265.582 81.3243 264.547 81.3243 263.27C81.3243 261.993 82.3599 260.958 83.6367 260.958C84.9135 260.958 85.9486 261.993 85.9486 263.27Z" fill="#8A8EC0"/>
<path fill-rule="evenodd" clip-rule="evenodd" d="M122.624 215.059C122.624 216.336 121.589 217.372 120.312 217.372C119.035 217.372 118 216.336 118 215.059C118 213.782 119.035 212.747 120.312 212.747C121.589 212.747 122.624 213.782 122.624 215.059Z" fill="#8A8EC0"/>
<path fill-rule="evenodd" clip-rule="evenodd" d="M74.7893 208.845C74.7893 210.121 73.7542 211.157 72.4774 211.157C71.2006 211.157 70.1655 210.121 70.1655 208.845C70.1655 207.568 71.2006 206.533 72.4774 206.533C73.7542 206.533 74.7893 207.568 74.7893 208.845Z" fill="#8A8EC0"/>
<path fill-rule="evenodd" clip-rule="evenodd" d="M145.223 263.082C145.223 264.359 144.188 265.394 142.911 265.394C141.634 265.394 140.599 264.359 140.599 263.082C140.599 261.805 141.634 260.77 142.911 260.77C144.188 260.77 145.223 261.805 145.223 263.082Z" fill="#8A8EC0"/>
<path fill-rule="evenodd" clip-rule="evenodd" d="M161.23 258.186C161.23 259.463 160.195 260.498 158.918 260.498C157.641 260.498 156.606 259.463 156.606 258.186C156.606 256.909 157.641 255.873 158.918 255.873C160.195 255.873 161.23 256.909 161.23 258.186Z" fill="#8A8EC0"/>
<path fill-rule="evenodd" clip-rule="evenodd" d="M20.2825 183.051C20.2825 184.328 19.2475 185.363 17.9706 185.363C16.6938 185.363 15.6582 184.328 15.6582 183.051C15.6582 181.774 16.6938 180.739 17.9706 180.739C19.2475 180.739 20.2825 181.774 20.2825 183.051Z" fill="#8A8EC0"/>
<path fill-rule="evenodd" clip-rule="evenodd" d="M169.14 222.875C169.14 224.152 168.105 225.187 166.828 225.187C165.551 225.187 164.516 224.152 164.516 222.875C164.516 221.598 165.551 220.563 166.828 220.563C168.105 220.563 169.14 221.598 169.14 222.875Z" fill="#8A8EC0"/>
<path fill-rule="evenodd" clip-rule="evenodd" d="M26.8119 125.943C26.8119 127.22 25.7768 128.255 24.5 128.255C23.2232 128.255 22.1876 127.22 22.1876 125.943C22.1876 124.666 23.2232 123.631 24.5 123.631C25.7768 123.631 26.8119 124.666 26.8119 125.943Z" fill="#8A8EC0"/>
<path fill-rule="evenodd" clip-rule="evenodd" d="M23.6723 99.8119C23.6723 101.089 22.6373 102.124 21.3605 102.124C20.0836 102.124 19.048 101.089 19.048 99.8119C19.048 98.535 20.0836 97.4995 21.3605 97.4995C22.6373 97.4995 23.6723 98.535 23.6723 99.8119Z" fill="#8A8EC0"/>
<path fill-rule="evenodd" clip-rule="evenodd" d="M65.0819 93.3153C65.0819 94.5921 64.0469 95.6277 62.7701 95.6277C61.4932 95.6277 60.4582 94.5921 60.4582 93.3153C60.4582 92.0384 61.4932 91.0034 62.7701 91.0034C64.0469 91.0034 65.0819 92.0384 65.0819 93.3153Z" fill="#8A8EC0"/>
<path fill-rule="evenodd" clip-rule="evenodd" d="M22.1655 31.6384C22.1655 32.9152 21.1305 33.9503 19.8537 33.9503C18.5768 33.9503 17.5418 32.9152 17.5418 31.6384C17.5418 30.3616 18.5768 29.3265 19.8537 29.3265C21.1305 29.3265 22.1655 30.3616 22.1655 31.6384Z" fill="#8A8EC0"/>
<path fill-rule="evenodd" clip-rule="evenodd" d="M77.9345 54.9345C77.9345 56.2119 76.8994 57.2469 75.6226 57.2469C74.3458 57.2469 73.3107 56.2119 73.3107 54.9345C73.3107 53.6576 74.3458 52.6226 75.6226 52.6226C76.8994 52.6226 77.9345 53.6576 77.9345 54.9345Z" fill="#8A8EC0"/>
<path fill-rule="evenodd" clip-rule="evenodd" d="M117.79 26.3486C117.79 27.626 116.755 28.661 115.478 28.661C114.201 28.661 113.166 27.626 113.166 26.3486C113.166 25.0717 114.201 24.0367 115.478 24.0367C116.755 24.0367 117.79 25.0717 117.79 26.3486Z" fill="#8A8EC0"/>
<path fill-rule="evenodd" clip-rule="evenodd" d="M123.912 73.1757C123.912 74.4525 122.877 75.4876 121.6 75.4876C120.323 75.4876 119.288 74.4525 119.288 73.1757C119.288 71.8989 120.323 70.8638 121.6 70.8638C122.877 70.8638 123.912 71.8989 123.912 73.1757Z" fill="#8A8EC0"/>
<path fill-rule="evenodd" clip-rule="evenodd" d="M174.081 22.2447C174.081 23.5216 173.046 24.5566 171.768 24.5566C170.492 24.5566 169.456 23.5216 169.456 22.2447C169.456 20.9673 170.492 19.9323 171.768 19.9323C173.046 19.9323 174.081 20.9673 174.081 22.2447Z" fill="#8A8EC0"/>
<path fill-rule="evenodd" clip-rule="evenodd" d="M207.717 51.9774C207.717 53.2542 206.682 54.2893 205.405 54.2893C204.128 54.2893 203.093 53.2542 203.093 51.9774C203.093 50.7006 204.128 49.6655 205.405 49.6655C206.682 49.6655 207.717 50.7006 207.717 51.9774Z" fill="#8A8EC0"/>
<path fill-rule="evenodd" clip-rule="evenodd" d="M204.84 64.7836C204.84 66.0605 203.805 67.0955 202.528 67.0955C201.251 67.0955 200.216 66.0605 200.216 64.7836C200.216 63.5068 201.251 62.4712 202.528 62.4712C203.805 62.4712 204.84 63.5068 204.84 64.7836Z" fill="#8A8EC0"/>
<path fill-rule="evenodd" clip-rule="evenodd" d="M183.715 66.5978C183.715 67.8752 182.68 68.9102 181.403 68.9102C180.127 68.9102 179.092 67.8752 179.092 66.5978C179.092 65.3209 180.127 64.2859 181.403 64.2859C182.68 64.2859 183.715 65.3209 183.715 66.5978Z" fill="#8A8EC0"/>
<path fill-rule="evenodd" clip-rule="evenodd" d="M216.938 114.149C216.938 115.426 215.903 116.461 214.626 116.461C213.349 116.461 212.314 115.426 212.314 114.149C212.314 112.872 213.349 111.837 214.626 111.837C215.903 111.837 216.938 112.872 216.938 114.149Z" fill="#8A8EC0"/>
<path fill-rule="evenodd" clip-rule="evenodd" d="M267.619 76.6955C267.619 77.9723 266.584 79.0074 265.307 79.0074C264.031 79.0074 262.995 77.9723 262.995 76.6955C262.995 75.4181 264.031 74.3831 265.307 74.3831C266.584 74.3831 267.619 75.4181 267.619 76.6955Z" fill="#8A8EC0"/>
<path fill-rule="evenodd" clip-rule="evenodd" d="M254.811 154.132C254.088 155.184 252.648 155.451 251.596 154.728C250.543 154.005 250.276 152.566 250.999 151.513C251.723 150.46 253.162 150.194 254.215 150.917C255.267 151.64 255.534 153.08 254.811 154.132Z" fill="#8A8EC0"/>
<path fill-rule="evenodd" clip-rule="evenodd" d="M194.671 147.834C194.671 149.111 193.635 150.146 192.358 150.146C191.081 150.146 190.046 149.111 190.046 147.834C190.046 146.558 191.081 145.522 192.358 145.522C193.635 145.522 194.671 146.558 194.671 147.834Z" fill="#8A8EC0"/>
<path fill-rule="evenodd" clip-rule="evenodd" d="M157.759 177.024C157.759 178.301 156.724 179.337 155.447 179.337C154.17 179.337 153.135 178.301 153.135 177.024C153.135 175.747 154.17 174.712 155.447 174.712C156.724 174.712 157.759 175.747 157.759 177.024Z" fill="#8A8EC0"/>
<path fill-rule="evenodd" clip-rule="evenodd" d="M138.55 167.42C138.55 168.697 137.515 169.732 136.238 169.732C134.961 169.732 133.926 168.697 133.926 167.42C133.926 166.143 134.961 165.108 136.238 165.108C137.515 165.108 138.55 166.143 138.55 167.42Z" fill="#8A8EC0"/>
<path fill-rule="evenodd" clip-rule="evenodd" d="M227.727 196.327C227.727 197.604 226.692 198.639 225.415 198.639C224.138 198.639 223.103 197.604 223.103 196.327C223.103 195.05 224.138 194.015 225.415 194.015C226.692 194.015 227.727 195.05 227.727 196.327Z" fill="#8A8EC0"/>
<path fill-rule="evenodd" clip-rule="evenodd" d="M258.211 213.55C258.211 214.827 257.176 215.862 255.899 215.862C254.622 215.862 253.587 214.827 253.587 213.55C253.587 212.273 254.622 211.238 255.899 211.238C257.176 211.238 258.211 212.273 258.211 213.55Z" fill="#8A8EC0"/>
<path fill-rule="evenodd" clip-rule="evenodd" d="M264.425 223.154C264.425 224.431 263.39 225.467 262.114 225.467C260.837 225.467 259.802 224.431 259.802 223.154C259.802 221.877 260.837 220.842 262.114 220.842C263.39 220.842 264.425 221.877 264.425 223.154Z" fill="#8A8EC0"/>
<path fill-rule="evenodd" clip-rule="evenodd" d="M213.578 236.149C213.578 237.425 212.543 238.461 211.266 238.461C209.989 238.461 208.954 237.425 208.954 236.149C208.954 234.872 209.989 233.837 211.266 233.837C212.543 233.837 213.578 234.872 213.578 236.149Z" fill="#8A8EC0"/>
<path fill-rule="evenodd" clip-rule="evenodd" d="M256.695 259.786C256.695 261.063 255.66 262.099 254.382 262.099C253.106 262.099 252.071 261.063 252.071 259.786C252.071 258.51 253.106 257.475 254.382 257.475C255.66 257.475 256.695 258.51 256.695 259.786Z" fill="#8A8EC0"/>
<path fill-rule="evenodd" clip-rule="evenodd" d="M202.655 271.251C202.655 272.528 201.62 273.563 200.343 273.563C199.066 273.563 198.031 272.528 198.031 271.251C198.031 269.975 199.066 268.94 200.343 268.94C201.62 268.94 202.655 269.975 202.655 271.251Z" fill="#8A8EC0"/>
<path fill-rule="evenodd" clip-rule="evenodd" d="M98.4051 173.646C98.4051 174.923 97.3701 175.958 96.0933 175.958C94.8159 175.958 93.7808 174.923 93.7808 173.646C93.7808 172.368 94.8159 171.333 96.0933 171.333C97.3701 171.333 98.4051 172.368 98.4051 173.646Z" fill="#8A8EC0"/>
<path fill-rule="evenodd" clip-rule="evenodd" d="M114.629 119.754C114.629 121.031 113.594 122.066 112.317 122.066C111.04 122.066 110.005 121.031 110.005 119.754C110.005 118.477 111.04 117.442 112.317 117.442C113.594 117.442 114.629 118.477 114.629 119.754Z" fill="#8A8EC0"/>
<path fill-rule="evenodd" clip-rule="evenodd" d="M98.8006 122.55C98.8006 123.827 97.7655 124.862 96.4887 124.862C95.2118 124.862 94.1768 123.827 94.1768 122.55C94.1768 121.272 95.2118 120.237 96.4887 120.237C97.7655 120.237 98.8006 121.272 98.8006 122.55Z" fill="#8A8EC0"/>
</g>
</svg>
