<svg width="452" height="74" viewBox="0 0 452 74" fill="none" xmlns="http://www.w3.org/2000/svg">
<g clip-path="url(#clip0_118_2)">
<mask id="mask0_118_2" style="mask-type:luminance" maskUnits="userSpaceOnUse" x="0" y="0" width="452" height="74">
<path d="M0 0H452V74H0V0Z" fill="white"/>
</mask>
<g mask="url(#mask0_118_2)">
<path d="M274.783 19.5723C277.752 16.6001 277.752 11.7813 274.783 8.8091C271.814 5.83692 267 5.83692 264.03 8.8091C261.061 11.7813 261.061 16.6001 264.03 19.5723C267 22.5445 271.814 22.5445 274.783 19.5723Z" fill="#6A5ACD"/>
<path d="M220.277 7.092L276.813 63.683L266.234 74.272L209.698 17.681L220.277 7.092Z" fill="#D5DCFC"/>
<path d="M209.698 63.509L256.002 17.16L266.581 27.749L220.277 74.098L209.698 63.509ZM76.479 73.185L95.57 6.452H76.179L66.184 50.974L54.79 6.452H41.596L30.202 50.974L20.107 6.452H0.81601L19.907 73.185H38.098L48.193 31.364L58.288 73.185H76.479ZM93.322 48.973C93.322 64.681 104.816 74.385 119.709 74.385C127.105 74.385 135.101 72.284 139.899 67.982L133.402 58.377C130.703 60.778 125.906 62.479 121.608 62.479C114.411 62.479 110.213 58.377 109.314 53.875H143.697V50.573C143.697 34.165 133.302 23.66 119.009 23.66C103.916 23.66 93.322 34.966 93.322 48.973ZM119.009 35.566C126.106 35.566 128.604 40.468 129.004 43.87H109.114C109.714 40.368 112.312 35.566 119.009 35.566ZM166.671 73.185V67.582C170.669 72.184 175.566 74.385 180.964 74.385C192.858 74.385 202.253 65.381 202.253 48.973C202.253 33.165 192.958 23.66 180.964 23.66C175.666 23.66 170.469 25.761 166.671 30.563V6.452H151.278V73.185H166.671ZM166.671 41.669C168.57 39.068 172.568 37.267 175.866 37.267C181.963 37.267 186.561 41.769 186.561 48.973C186.561 56.277 181.963 60.779 175.866 60.779C172.568 60.779 168.57 59.078 166.671 56.477V41.669ZM334.828 73.185V6.452H319.535V30.564C315.637 25.762 310.54 23.661 305.242 23.661C293.148 23.661 283.853 33.166 283.853 48.974C283.853 65.382 293.348 74.386 305.242 74.386C310.64 74.386 315.537 72.185 319.535 67.583V73.186L334.828 73.185ZM319.535 56.377C317.536 58.978 313.538 60.779 310.24 60.779C304.143 60.779 299.645 56.177 299.645 48.973C299.645 41.769 304.143 37.267 310.24 37.267C313.538 37.267 317.536 38.968 319.535 41.569V56.377ZM342.906 48.973C342.906 64.681 354.4 74.385 369.293 74.385C376.689 74.385 384.685 72.284 389.483 67.982L382.986 58.377C380.288 60.778 375.49 62.479 371.192 62.479C363.996 62.479 359.798 58.377 358.898 53.875H393.281V50.573C393.281 34.165 382.886 23.66 368.593 23.66C353.501 23.66 342.906 34.966 342.906 48.973ZM368.593 35.566C375.69 35.566 378.189 40.468 378.588 43.87H358.698C359.298 40.368 361.897 35.566 368.593 35.566ZM429.648 73.185L448.639 24.861H432.347L421.352 55.476L410.458 24.861H394.266L413.256 73.185H429.648Z" fill="#D5DCFC"/>
</g>
</g>
<defs>
<clipPath id="clip0_118_2">
<rect width="452" height="74" fill="white"/>
</clipPath>
</defs>
</svg>
